<?xml version="1.0" encoding="utf-8"?>
<!-- Generator: Adobe Illustrator 17.0.0, SVG Export Plug-In . SVG Version: 6.00 Build 0)  -->
<!DOCTYPE svg PUBLIC "-//W3C//DTD SVG 1.1//EN" "http://www.w3.org/Graphics/SVG/1.1/DTD/svg11.dtd">
<svg version="1.1" id="Layer_1" xmlns="http://www.w3.org/2000/svg" xmlns:xlink="http://www.w3.org/1999/xlink" x="0px" y="0px"
	 width="500px" height="200px" viewBox="0 0 500 200" enable-background="new 0 0 500 200" xml:space="preserve">
<g>
	<path d="M40.76,80.129h7.91c3.182,0,5.627,0.378,7.336,1.132c1.71,0.755,3.06,1.914,4.05,3.478c0.991,1.564,1.487,3.301,1.487,5.21
		c0,1.782-0.435,3.405-1.303,4.869c-0.869,1.464-2.145,2.65-3.827,3.559c2.084,0.709,3.688,1.542,4.813,2.496
		c1.124,0.955,1.998,2.11,2.623,3.464c0.626,1.355,0.938,2.823,0.938,4.405c0,3.219-1.177,5.942-3.532,8.169
		c-2.356,2.228-5.514,3.341-9.478,3.341H40.76V80.129z M44.687,84.057v12.847h2.297c2.788,0,4.838-0.259,6.15-0.777
		c1.312-0.518,2.35-1.336,3.116-2.455c0.766-1.118,1.148-2.359,1.148-3.723c0-1.837-0.642-3.277-1.928-4.323
		c-1.284-1.045-3.33-1.568-6.136-1.568H44.687z M44.687,100.94v15.384h4.974c2.932,0,5.081-0.287,6.447-0.86
		c1.367-0.572,2.463-1.468,3.293-2.687c0.827-1.218,1.243-2.536,1.243-3.955c0-1.782-0.583-3.336-1.748-4.664
		s-2.767-2.236-4.806-2.728c-1.367-0.327-3.744-0.491-7.133-0.491H44.687z"/>
	<path d="M117.05,80.129l18.711,40.122h-4.332l-6.31-13.201h-17.284l-6.251,13.201h-4.473l18.957-40.122H117.05z M116.544,88.654
		l-6.875,14.523h13.717L116.544,88.654z"/>
	<path d="M170.126,80.129h7.992c4.455,0,7.474,0.182,9.056,0.547c2.382,0.546,4.318,1.716,5.809,3.509
		c1.49,1.793,2.236,4.001,2.236,6.622c0,2.185-0.515,4.106-1.541,5.763c-1.028,1.657-2.496,2.909-4.406,3.755
		c-1.909,0.847-4.546,1.279-7.91,1.297l14.429,18.629h-4.96l-14.429-18.629h-2.267v18.629h-4.011V80.129z M174.137,84.057v13.638
		l6.911,0.055c2.677,0,4.658-0.254,5.942-0.764c1.283-0.509,2.286-1.323,3.005-2.441c0.719-1.118,1.078-2.368,1.078-3.751
		c0-1.346-0.364-2.569-1.092-3.669c-0.729-1.1-1.685-1.886-2.869-2.359c-1.184-0.473-3.15-0.709-5.9-0.709H174.137z"/>
	<path d="M231.852,80.129h7.91c3.182,0,5.627,0.378,7.337,1.132c1.71,0.755,3.06,1.914,4.05,3.478
		c0.991,1.564,1.487,3.301,1.487,5.21c0,1.782-0.435,3.405-1.303,4.869c-0.869,1.464-2.145,2.65-3.827,3.559
		c2.084,0.709,3.688,1.542,4.813,2.496c1.124,0.955,1.998,2.11,2.623,3.464c0.626,1.355,0.939,2.823,0.939,4.405
		c0,3.219-1.177,5.942-3.532,8.169c-2.356,2.228-5.514,3.341-9.478,3.341h-11.019V80.129z M235.779,84.057v12.847h2.297
		c2.788,0,4.838-0.259,6.15-0.777c1.312-0.518,2.35-1.336,3.116-2.455c0.766-1.118,1.148-2.359,1.148-3.723
		c0-1.837-0.642-3.277-1.928-4.323c-1.284-1.045-3.33-1.568-6.136-1.568H235.779z M235.779,100.94v15.384h4.974
		c2.932,0,5.081-0.287,6.447-0.86c1.367-0.572,2.463-1.468,3.293-2.687c0.827-1.218,1.243-2.536,1.243-3.955
		c0-1.782-0.583-3.336-1.748-4.664c-1.165-1.327-2.767-2.236-4.806-2.728c-1.367-0.327-3.744-0.491-7.133-0.491H235.779z"/>
	<path d="M310.855,79.12c6.076,0,11.162,2.028,15.256,6.082c4.093,4.055,6.141,9.047,6.141,14.974
		c0,5.874-2.043,10.856-6.128,14.947c-4.086,4.091-9.067,6.137-14.943,6.137c-5.949,0-10.973-2.036-15.065-6.11
		c-4.094-4.073-6.141-9.001-6.141-14.783c0-3.855,0.933-7.428,2.798-10.719c1.865-3.291,4.407-5.868,7.629-7.733
		C303.621,80.052,307.105,79.12,310.855,79.12z M311.032,83.021c-2.969,0-5.783,0.773-8.442,2.32
		c-2.659,1.547-4.735,3.631-6.229,6.25c-1.493,2.621-2.239,5.541-2.239,8.763c0,4.768,1.652,8.794,4.957,12.079
		c3.305,3.285,7.29,4.927,11.954,4.927c3.113,0,5.996-0.755,8.645-2.266c2.651-1.51,4.717-3.576,6.202-6.196
		c1.485-2.62,2.227-5.532,2.227-8.735c0-3.184-0.742-6.065-2.227-8.639c-1.485-2.575-3.574-4.636-6.269-6.183
		C316.914,83.794,314.054,83.021,311.032,83.021z"/>
	<path d="M364.083,112.778l3.41-2.045c2.4,4.418,5.173,6.628,8.319,6.628c1.345,0,2.608-0.314,3.791-0.941
		c1.181-0.627,2.081-1.468,2.7-2.523c0.617-1.054,0.928-2.173,0.928-3.355c0-1.345-0.456-2.663-1.364-3.955
		c-1.255-1.782-3.545-3.928-6.874-6.437c-3.345-2.527-5.428-4.354-6.246-5.482c-1.419-1.891-2.128-3.936-2.128-6.137
		c0-1.746,0.418-3.337,1.255-4.773c0.836-1.437,2.014-2.568,3.532-3.396c1.519-0.827,3.168-1.241,4.95-1.241
		c1.891,0,3.659,0.469,5.306,1.405c1.645,0.936,3.386,2.659,5.224,5.169l-3.274,2.482c-1.509-2-2.796-3.318-3.86-3.955
		c-1.063-0.637-2.223-0.955-3.477-0.955c-1.619,0-2.942,0.491-3.969,1.473c-1.028,0.982-1.541,2.192-1.541,3.628
		c0,0.873,0.181,1.719,0.546,2.537c0.364,0.818,1.026,1.709,1.991,2.673c0.527,0.509,2.254,1.845,5.182,4.009
		c3.473,2.564,5.855,4.846,7.146,6.846c1.291,2,1.936,4.01,1.936,6.028c0,2.909-1.105,5.437-3.314,7.583
		c-2.209,2.145-4.896,3.218-8.06,3.218c-2.437,0-4.646-0.65-6.629-1.95C367.583,118.011,365.756,115.833,364.083,112.778z"/>
	<path d="M440.372,80.129l18.711,40.122h-4.332l-6.31-13.201h-17.284l-6.251,13.201h-4.473l18.957-40.122H440.372z M439.866,88.654
		l-6.875,14.523h13.717L439.866,88.654z"/>
</g>
</svg>
