<?xml version="1.0" encoding="utf-8"?>
<!-- Generator: Adobe Illustrator 19.0.0, SVG Export Plug-In . SVG Version: 6.00 Build 0)  -->
<svg version="1.0" id="Layer_1" xmlns="http://www.w3.org/2000/svg" xmlns:xlink="http://www.w3.org/1999/xlink" x="0px" y="0px"
	 viewBox="0 0 640 480" style="enable-background:new 0 0 640 480;" xml:space="preserve">
<style type="text/css">
	.st0{fill:#FFFFFF;}
</style>
<g id="XMLID_53_">
	<path id="XMLID_98_" class="st0" d="M264.6,229.8l0.3,1.2h6.1v-30.2l-39.6,0l-0.6,0.1h-1.3l-0.1,0c-9.9,0.8-19.1,5.3-25.9,12.5
		c-2.2,2.3-4.1,5-5.7,7.8v-13.6l0,0V205c0,0,0,0,0-0.1v-2.8c-0.1-0.8-0.7-1.4-1.5-1.4h-2.5c-0.8,0-1.5,0.7-1.5,1.5v0.4l0,0v75.1l0,0
		v0.2c0,0.8,0.7,1.5,1.5,1.5h2.5c0.8,0,1.4-0.6,1.5-1.4v-2.8c0,0,0-0.1,0-0.1v-16.2c2.4,4.2,5.5,8.1,9.3,11.2
		c6.6,5.5,15,8.8,23.7,9.2l3.5,0l0.2,0c9.9-0.8,19.1-5.3,25.9-12.5c2-2.1,3.7-4.4,5.2-7v14.9l0,3h0v0.2c0,0.8,0.7,1.5,1.5,1.5h2.5
		c0.7,0,1.2-0.5,1.4-1.1v-40.8h-22.5l0,0h-0.3c-0.8,0.1-1.4,0.7-1.4,1.5v2.5c0,0.8,0.7,1.5,1.5,1.5h0.2v0h17
		c-1.4,15.7-14.3,29-30.2,30.9v-67.6C248.8,207.3,260.8,216.8,264.6,229.8z M265.7,206.2v13c-1.9-3.1-4.2-5.9-6.9-8.3
		c-1.9-1.8-4-3.3-6.3-4.7H265.7z M229.8,273.8c-16.5-1.4-30-14.7-31.4-30.9h31.4V273.8z M229.8,237.5h-31.4
		c1.3-16.2,14.8-29.9,31.3-31.3h0.1V237.5z"/>
	<path id="XMLID_97_" class="st0" d="M193.5,292.4l76.3,0c0.7-0.1,1.3-0.6,1.3-1.3l0-2.3c0-0.7-0.5-1.2-1.1-1.3l-76.5,0
		c-0.7,0.1-1.2,0.7-1.2,1.3v2.4C192.3,291.7,192.8,292.3,193.5,292.4z"/>
	<path id="XMLID_96_" class="st0" d="M308.8,292.2l142.2,0c0.7-0.1,1.3-0.6,1.3-1.3v-2.3c0-0.7-0.5-1.2-1.1-1.3l-142.3,0
		c-0.7,0.1-1.2,0.7-1.2,1.3v2.3C307.6,291.6,308.1,292.1,308.8,292.2z"/>
	<g id="XMLID_54_">
		<polygon id="XMLID_95_" class="st0" points="317.8,207.2 320.3,207.2 320.3,213.2 311.2,213.2 311.2,207.2 313.8,207.2 
			313.8,205.6 306.5,205.6 306.5,207.2 309.1,207.2 309.1,221.2 306.5,221.2 306.5,222.8 313.8,222.8 313.8,221.2 311.2,221.2 
			311.2,215 320.3,214.9 320.3,221.2 317.8,221.2 317.8,222.8 325,222.8 325,221.2 322.5,221.2 322.5,207.2 325,207.2 325,205.6 
			317.8,205.6 		"/>
		<path id="XMLID_92_" class="st0" d="M333.2,223c1.2,0,2.2-0.2,3-0.5c0.6-0.2,1.2-0.6,1.7-1.1l0,1.4h3.9v-1.6H340V213
			c0-1.3-0.4-2.4-1.2-3.1c-0.8-0.7-1.9-1.1-3.4-1.1h-1.1c-1.4,0-2.6,0.3-3.4,0.9c-0.8,0.6-1.2,1.5-1.2,2.6v0.7h2.1v-0.5
			c0-0.8,0.3-2,2.6-2h0.8c0.9,0,1.6,0.2,2,0.6c0.4,0.4,0.6,1.1,0.6,2.2v1.4h-3.4c-1.7,0-3,0.3-3.9,1c-0.8,0.6-1.3,1.6-1.3,2.9v0.8
			c0,1.1,0.3,2,1,2.7C330.9,222.7,331.9,223,333.2,223z M333.7,221.4c-0.8,0-1.4-0.2-1.7-0.6c-0.4-0.4-0.6-1-0.6-1.6v-0.5
			c0-0.8,0.2-1.4,0.8-1.8c0.5-0.4,1.5-0.6,2.8-0.6c0.8,0,1.8,0,2.9,0.1v1.5c-0.1,0.5-0.2,1-0.4,1.4c-0.2,0.4-0.5,0.8-0.8,1.1
			c-0.3,0.3-0.7,0.6-1.2,0.7C334.9,221.3,334.3,221.4,333.7,221.4z"/>
		<polygon id="XMLID_91_" class="st0" points="351.3,221.2 349.3,221.2 349.3,205.6 345,205.6 345,207.2 347.1,207.2 347.1,221.2 
			345,221.2 345,222.8 351.3,222.8 		"/>
		<path id="XMLID_90_" class="st0" d="M356.9,207.4h1.3c0.2,0,0.4,0,0.5-0.1c0.1-0.1,0.2-0.3,0.2-0.5v-1.1c0-0.2-0.1-0.4-0.2-0.5
			c-0.1-0.1-0.3-0.1-0.5-0.1h-1.3c-0.2,0-0.3,0-0.4,0.1c-0.1,0.1-0.2,0.3-0.2,0.5v1.1c0,0.2,0.1,0.4,0.2,0.5
			C356.5,207.4,356.7,207.4,356.9,207.4z"/>
		<polygon id="XMLID_89_" class="st0" points="360.7,221.2 358.6,221.2 358.6,209.1 354.3,209.1 354.3,210.7 356.5,210.7 
			356.5,221.2 354.3,221.2 354.3,222.8 360.7,222.8 		"/>
		<polygon id="XMLID_88_" class="st0" points="370.3,221.2 368.3,221.2 368.3,205.6 364,205.6 364,207.2 366.2,207.2 366.2,221.2 
			364,221.2 364,222.8 370.3,222.8 		"/>
		<path id="XMLID_85_" class="st0" d="M378,223c1.2,0,2.2-0.2,3-0.5c0.6-0.2,1.2-0.6,1.7-1.1l0,1.4h3.9v-1.6h-1.9V213
			c0-1.3-0.4-2.4-1.2-3.1c-0.8-0.7-1.9-1.1-3.4-1.1h-1.1c-1.5,0-2.6,0.3-3.4,0.9c-0.8,0.6-1.3,1.5-1.3,2.6v0.7h2.1v-0.5
			c0-0.8,0.3-2,2.6-2h0.8c0.9,0,1.6,0.2,2,0.6c0.4,0.4,0.6,1.1,0.6,2.2v1.4h-3.4c-1.7,0-3,0.3-3.9,1c-0.8,0.6-1.3,1.6-1.3,2.9v0.8
			c0,1.1,0.3,2,1,2.7C375.7,222.7,376.7,223,378,223z M378.4,221.4c-0.8,0-1.4-0.2-1.8-0.6c-0.4-0.4-0.6-1-0.6-1.6v-0.5
			c0-0.8,0.2-1.4,0.8-1.8c0.5-0.4,1.5-0.6,2.8-0.6c0.8,0,1.8,0,2.9,0.1v1.5c-0.1,0.5-0.2,1-0.4,1.4c-0.2,0.4-0.5,0.8-0.8,1.1
			c-0.3,0.3-0.7,0.6-1.2,0.8C379.6,221.3,379.1,221.4,378.4,221.4z"/>
		<path id="XMLID_82_" class="st0" d="M397,227c1.8,0,3.1-0.3,3.9-1c0.8-0.7,1.3-1.8,1.3-3.3v-11.9h2v-1.6H400v1.3
			c-0.5-0.4-1-0.8-1.7-1c-0.9-0.3-1.9-0.5-2.9-0.5c-0.8,0-1.5,0.2-2.1,0.4c-0.6,0.3-1.2,0.7-1.6,1.2c-0.4,0.5-0.8,1.2-1,1.9
			c-0.2,0.7-0.3,1.5-0.3,2.4v1.9c0,0.9,0.1,1.7,0.3,2.4c0.2,0.7,0.6,1.4,1,1.9c0.4,0.5,1,0.9,1.6,1.2c0.6,0.3,1.3,0.4,2.1,0.4
			c1.1,0,2-0.2,2.9-0.5c0.6-0.2,1.2-0.6,1.6-1v1.3c0,1-0.2,1.8-0.7,2.2c-0.5,0.4-1.3,0.7-2.4,0.7H396c-1,0-1.7-0.1-2.1-0.4
			c-0.4-0.3-0.6-0.7-0.7-1.3l0-0.2h-0.9c-0.2,0-0.3,0-0.4,0c-0.3,0-0.5,0.1-0.8,0.5L391,224l0,0.1c0.1,0.9,0.5,1.7,1.4,2.2
			c0.8,0.5,1.9,0.7,3.4,0.7H397z M400,215.8v0.3c0,0.8-0.1,1.5-0.2,2.1c-0.2,0.6-0.4,1.2-0.7,1.6c-0.3,0.4-0.6,0.8-0.9,1
			c-0.3,0.2-0.7,0.4-1.1,0.4h-1.2c-0.5,0-0.9-0.1-1.3-0.3c-0.4-0.2-0.8-0.5-1.1-0.9c-0.3-0.4-0.5-0.9-0.7-1.4
			c-0.2-0.6-0.2-1.2-0.2-1.8V215c0-0.7,0.1-1.3,0.2-1.9c0.2-0.5,0.4-1,0.7-1.4c0.3-0.4,0.6-0.7,1-0.9c0.4-0.2,0.8-0.3,1.3-0.3h1.2
			c0.4,0,0.8,0.1,1.2,0.4c0.4,0.3,0.7,0.6,0.9,1.1c0.3,0.5,0.5,1,0.6,1.7C399.9,214.3,400,215,400,215.8z"/>
		<polygon id="XMLID_81_" class="st0" points="413.6,221.2 411.6,221.2 411.6,209.1 407.2,209.1 407.2,210.7 409.4,210.7 
			409.4,221.2 407.2,221.2 407.2,222.8 413.6,222.8 		"/>
		<path id="XMLID_80_" class="st0" d="M409.8,207.4h1.3c0.2,0,0.4,0,0.5-0.1c0.2-0.1,0.2-0.4,0.2-0.5v-1.1c0-0.1,0-0.3-0.2-0.5
			c-0.1-0.1-0.3-0.1-0.5-0.1h-1.3c-0.2,0-0.3,0-0.4,0.1c-0.2,0.1-0.2,0.4-0.2,0.5v1.1c0,0.1,0,0.3,0.2,0.5
			C409.5,207.4,409.7,207.4,409.8,207.4z"/>
		<path id="XMLID_79_" class="st0" d="M427.2,218.4c-0.1,0.4-0.1,0.7-0.3,1.1c-0.1,0.4-0.3,0.7-0.5,1c-0.2,0.3-0.5,0.5-0.8,0.7
			c-0.3,0.2-0.6,0.3-1,0.3h-1.1c-0.6,0-1.1-0.1-1.5-0.3c-0.4-0.2-0.8-0.5-1.1-0.9c-0.3-0.4-0.5-0.9-0.7-1.5
			c-0.2-0.6-0.3-1.2-0.3-1.9v-1.7c0-0.7,0.1-1.4,0.2-1.9c0.2-0.6,0.4-1,0.7-1.4c0.3-0.4,0.7-0.7,1.1-0.9c0.4-0.2,0.9-0.3,1.5-0.3
			c1.1,0,2,0.2,2.6,0.6c0.6,0.4,1,1.1,1.1,1.8v0.7h1.8v-4.6h-1.4v1.1c-0.4-0.3-0.9-0.6-1.4-0.8c-0.7-0.3-1.7-0.5-2.8-0.5
			c-1.8,0-3.1,0.6-4.1,1.6c-0.9,1.1-1.4,2.6-1.4,4.5v2c0,0.9,0.1,1.8,0.4,2.5c0.2,0.7,0.6,1.4,1.1,1.9c0.5,0.5,1,0.9,1.7,1.2
			c0.7,0.3,1.5,0.4,2.3,0.4h1.6c1.1,0,2-0.4,2.8-1.2c0.7-0.8,1.2-1.9,1.3-3.3l0-0.3h-1.9L427.2,218.4z"/>
		<path id="XMLID_78_" class="st0" d="M322.2,237.7v-5.9h-1.5v1.5c-0.5-0.5-1.2-0.8-2-1.2c-1.1-0.4-2.4-0.6-4-0.6
			c-1.2,0-2.3,0.2-3.2,0.5c-0.9,0.3-1.7,0.8-2.4,1.4c-0.6,0.6-1.2,1.4-1.5,2.3c-0.3,0.9-0.5,1.9-0.5,3v3.1c0,1.1,0.2,2.1,0.5,3
			c0.3,0.9,0.8,1.7,1.5,2.3c0.7,0.6,1.5,1.1,2.4,1.5c0.9,0.3,2,0.5,3.1,0.5c1.9,0,3.6-0.4,4.9-1.1c1.4-0.7,2.3-1.8,2.7-3.3l0-1.5
			h-2.2v1c-0.4,1.1-1,1.9-1.9,2.4c-0.9,0.5-2.1,0.8-3.4,0.8c-1.7,0-3-0.5-3.9-1.5c-0.9-1-1.4-2.4-1.4-4.1v-3c0-1.7,0.5-3.1,1.4-4.1
			c0.9-1,2.2-1.5,4-1.5c0.7,0,1.3,0.1,1.9,0.2c0.6,0.1,1.1,0.4,1.6,0.6c0.5,0.3,0.9,0.6,1.2,1.1c0.3,0.4,0.6,0.9,0.7,1.5v1H322.2z"
			/>
		<path id="XMLID_75_" class="st0" d="M333.8,235.1h-1.4c-1.7,0-3.1,0.6-4,1.7c-0.9,1.1-1.4,2.6-1.4,4.5v1.8c0,1.9,0.5,3.4,1.4,4.5
			c0.9,1.1,2.3,1.7,4,1.7h1.4c1.7,0,3.1-0.6,4-1.7c0.9-1.1,1.4-2.6,1.4-4.5v-1.8c0-1.9-0.5-3.4-1.4-4.5
			C336.9,235.7,335.5,235.1,333.8,235.1z M337.1,241.4v1.5c0,1.4-0.3,2.6-0.9,3.4c-0.6,0.8-1.5,1.2-2.6,1.2h-0.9
			c-1.2,0-2-0.4-2.6-1.2c-0.6-0.8-0.9-2-0.9-3.4v-1.5c0-1.5,0.3-2.6,0.9-3.5c0.6-0.8,1.5-1.2,2.6-1.2h0.9c1.1,0,2,0.4,2.6,1.2
			C336.8,238.8,337.1,240,337.1,241.4z"/>
		<path id="XMLID_74_" class="st0" d="M389,249v-1.6h-2.1v-12.1h-4.2v1.6h2.1v7.3c0,0.5-0.1,0.9-0.3,1.3c-0.2,0.4-0.4,0.8-0.8,1
			c-0.3,0.3-0.7,0.5-1.2,0.7c-0.4,0.2-0.9,0.3-1.5,0.3c-0.9,0-1.5-0.2-1.9-0.7c-0.4-0.5-0.6-1.3-0.6-2.4v-9.2h-4.1v1.6h2v7.8
			c0,1.4,0.3,2.5,1,3.3c0.7,0.8,1.7,1.2,3.1,1.2c1,0,1.9-0.2,2.7-0.5c0.6-0.2,1.1-0.5,1.5-0.9v1.2H389z"/>
		<path id="XMLID_73_" class="st0" d="M344.9,247.4h-2.2v1.6h6.3v-1.6h-2v-7.3c0-0.5,0.1-0.9,0.3-1.3c0.2-0.4,0.4-0.8,0.7-1.1
			c0.3-0.3,0.7-0.5,1.2-0.7c0.5-0.2,1-0.2,1.5-0.2c0.8,0,1.4,0.2,1.8,0.7c0.4,0.5,0.6,1.3,0.6,2.3v7.6h-2.2v1.6h6.3v-1.6h-2v-7.9
			c0-1.4-0.3-2.5-1-3.2c-0.7-0.8-1.7-1.1-3.1-1.1c-0.9,0-1.8,0.1-2.6,0.4c-0.6,0.2-1.1,0.5-1.5,0.9v-1h-4.3v1.6h2.2V247.4z"/>
		<path id="XMLID_72_" class="st0" d="M369.1,241.6c-0.6-0.2-1.3-0.3-2-0.3c-0.7,0-1.4-0.1-1.9-0.2c-0.6-0.1-1-0.3-1.4-0.5
			c-0.3-0.2-0.5-0.6-0.5-1.2v-0.6c0-0.6,0.2-1.1,0.6-1.5c0.4-0.4,1.1-0.6,1.9-0.6c1.1,0,2,0.2,2.6,0.5c0.6,0.3,0.9,0.7,0.9,1.2v1.2
			h1.8v-4.3h-1.4v0.8c-0.4-0.3-0.9-0.5-1.5-0.7c-0.8-0.2-1.7-0.3-2.8-0.3c-1.3,0-2.3,0.3-3.1,1c-0.8,0.7-1.2,1.6-1.2,2.8v0.8
			c0,0.9,0.2,1.6,0.7,2c0.4,0.4,1,0.7,1.6,0.9c0.6,0.2,1.3,0.3,2,0.3c0.7,0,1.3,0.1,1.9,0.2c0.6,0.1,1,0.3,1.4,0.6
			c0.3,0.3,0.5,0.7,0.5,1.3v0.4c0,0.8-0.2,1.3-0.7,1.7c-0.5,0.4-1.1,0.6-2,0.6c-1,0-1.9-0.2-2.7-0.6c-0.7-0.4-1-1-1.1-1.7l-0.3-0.7
			H361v4.6h1.4v-1c0.4,0.3,1,0.6,1.6,0.8c0.8,0.2,1.7,0.3,2.7,0.3c1.5,0,2.7-0.3,3.5-0.9c0.8-0.6,1.3-1.6,1.3-2.8v-0.7
			c0-0.9-0.2-1.6-0.7-2.1C370.2,242.2,369.7,241.8,369.1,241.6z"/>
		<polygon id="XMLID_71_" class="st0" points="395.9,231.8 391.6,231.8 391.6,233.4 393.8,233.4 393.8,247.4 391.6,247.4 391.6,249 
			397.9,249 397.9,247.4 395.9,247.4 		"/>
		<path id="XMLID_70_" class="st0" d="M407.2,246.1c0,0.8-0.1,1.2-0.2,1.3c-0.1,0.2-0.4,0.3-0.8,0.3c-0.5,0-1.1-0.1-1.1-1.3V237h3.3
			v-1.6h-3.3v-3l-2.2,0.1v2.8h-2.3v1.6h2.3v9.6c0,0.9,0.2,1.6,0.7,2.1c0.5,0.5,1.2,0.7,2.2,0.7c0.9,0,1.6-0.2,2.2-0.7
			c0.6-0.4,0.9-1.1,0.9-1.9v-0.8l-1.7-0.1V246.1z"/>
		<polygon id="XMLID_69_" class="st0" points="416.4,235.4 412.1,235.4 412.1,237 414.3,237 414.3,247.4 412.1,247.4 412.1,249 
			418.5,249 418.5,247.4 416.4,247.4 		"/>
		<path id="XMLID_68_" class="st0" d="M432.7,233.7h1.3c0.2,0,0.4,0,0.5-0.1c0.1-0.1,0.2-0.3,0.2-0.5v-1.1c0-0.2-0.1-0.4-0.2-0.5
			c-0.1-0.1-0.3-0.1-0.5-0.1h-1.3c-0.2,0-0.3,0-0.5,0.1c-0.1,0.1-0.2,0.3-0.2,0.5v1.1c0,0.2,0.1,0.4,0.2,0.5
			C432.4,233.6,432.5,233.7,432.7,233.7z"/>
		<path id="XMLID_67_" class="st0" d="M434.3,239.5c0-1.4-0.3-2.5-1-3.2c-0.7-0.8-1.7-1.1-3.1-1.1c-0.9,0-1.8,0.1-2.6,0.4
			c-0.6,0.2-1.1,0.5-1.5,0.9v-1h-4.3v1.6h2.2v10.5h-2.2v1.6h6.3v-1.6h-2v-7.3c0-0.5,0.1-0.9,0.3-1.3c0.2-0.4,0.4-0.8,0.8-1.1
			c0.3-0.3,0.7-0.5,1.2-0.7c0.5-0.2,1-0.2,1.5-0.2c0.8,0,1.4,0.2,1.8,0.7c0.4,0.5,0.6,1.3,0.6,2.3v7.6H430v1.6h6.4v-1.6h-2V239.5z"
			/>
		<path id="XMLID_64_" class="st0" d="M449.8,235.4v1.3c-0.5-0.4-1-0.8-1.7-1c-0.9-0.3-1.9-0.5-2.9-0.5c-0.8,0-1.5,0.1-2.1,0.4
			c-0.6,0.3-1.2,0.7-1.6,1.2c-0.4,0.5-0.7,1.2-1,1.9c-0.2,0.7-0.3,1.6-0.3,2.4v1.9c0,0.9,0.1,1.7,0.3,2.4c0.2,0.7,0.6,1.4,1,1.9
			c0.4,0.5,1,0.9,1.6,1.2c0.6,0.3,1.3,0.4,2.1,0.4c1.1,0,2-0.2,2.9-0.5c0.6-0.2,1.2-0.6,1.6-1v1.3c0,1-0.2,1.8-0.7,2.2
			c-0.5,0.4-1.3,0.7-2.4,0.7h-0.9c-1,0-1.7-0.1-2.1-0.4c-0.4-0.3-0.6-0.7-0.7-1.3l0-0.2h-0.9c-0.2,0-0.3,0-0.4,0
			c-0.3,0-0.5,0.1-0.8,0.5l-0.1,0.1l0,0.1c0.1,0.9,0.5,1.7,1.4,2.2c0.8,0.5,1.9,0.7,3.4,0.7h1.2c1.8,0,3.1-0.3,3.9-1
			c0.8-0.7,1.3-1.8,1.3-3.3V237h2v-1.6H449.8z M449.8,242v0.3c0,0.8-0.1,1.5-0.2,2.1c-0.2,0.6-0.4,1.2-0.6,1.6
			c-0.3,0.4-0.6,0.8-0.9,1c-0.3,0.2-0.7,0.3-1.1,0.3h-1.2c-0.5,0-1-0.1-1.4-0.3c-0.4-0.2-0.8-0.5-1.1-0.9c-0.3-0.4-0.5-0.9-0.7-1.4
			c-0.2-0.6-0.3-1.2-0.3-1.8v-1.7c0-0.7,0.1-1.3,0.2-1.9c0.2-0.5,0.4-1,0.7-1.4c0.3-0.4,0.6-0.7,1-0.9c0.4-0.2,0.8-0.3,1.3-0.3h1.2
			c0.4,0,0.8,0.1,1.1,0.4c0.4,0.3,0.7,0.6,0.9,1.1c0.3,0.5,0.5,1,0.6,1.7C449.7,240.5,449.8,241.2,449.8,242z"/>
		<path id="XMLID_63_" class="st0" d="M316.3,268.1h3.5v2.3c-0.2,1.1-0.8,2-1.8,2.6c-1,0.6-2.3,0.9-3.8,0.9c-1.7,0-3-0.5-3.9-1.5
			c-0.9-1-1.4-2.3-1.4-4v-3.2c0-1.7,0.5-3.1,1.4-4c0.9-1,2.2-1.5,3.9-1.5c1.5,0,2.7,0.3,3.7,0.9c1,0.6,1.6,1.3,1.9,2.4v1.1h2v-5.9
			h-1.5v1.5c-0.5-0.5-1.3-0.9-2.1-1.2c-1.1-0.4-2.5-0.6-4-0.6c-2.4,0-4.3,0.6-5.6,1.9c-1.3,1.3-2,3.1-2,5.3v3.1c0,1.1,0.2,2.1,0.5,3
			c0.3,0.9,0.8,1.7,1.5,2.3c0.6,0.6,1.4,1.1,2.3,1.5c0.9,0.3,2,0.5,3.1,0.5c1.4,0,2.7-0.2,3.9-0.6c1-0.3,1.8-0.8,2.4-1.3v1.7h1.6
			v-7.3h1.7v-1.6h-7.3V268.1z"/>
		<path id="XMLID_62_" class="st0" d="M334.6,261.6c-0.5,0.1-1,0.2-1.4,0.3c-0.5,0.2-0.9,0.4-1.3,0.6c-0.2,0.1-0.3,0.2-0.4,0.3v-1.2
			h-4.2v1.6h2.1v10.5h-2.1v1.6h6.7v-1.6h-2.4v-8c0-0.5,0.1-0.8,0.4-1.1c0.2-0.3,0.6-0.6,1-0.7c0.4-0.2,0.9-0.3,1.4-0.4
			c0.5-0.1,1.1-0.1,1.6-0.1h0.3v-0.6c0-0.2,0-0.5,0-1l0-0.3h-0.3C335.5,261.5,335,261.6,334.6,261.6z"/>
		<path id="XMLID_59_" class="st0" d="M346.9,261.5h-1.4c-1.7,0-3.1,0.6-4,1.7c-0.9,1.1-1.4,2.6-1.4,4.5v1.8c0,1.9,0.5,3.4,1.4,4.5
			c0.9,1.1,2.3,1.7,4,1.7h1.4c1.7,0,3.1-0.6,4-1.7c0.9-1.1,1.4-2.6,1.4-4.5v-1.8c0-1.9-0.5-3.4-1.4-4.5
			C349.9,262.1,348.6,261.5,346.9,261.5z M350.1,267.8v1.5c0,1.4-0.3,2.6-0.9,3.5c-0.6,0.8-1.5,1.2-2.6,1.2h-0.8
			c-1.2,0-2-0.4-2.6-1.2c-0.6-0.8-0.9-2-0.9-3.5v-1.5c0-1.4,0.3-2.6,0.9-3.4c0.6-0.8,1.4-1.2,2.6-1.2h0.8c1.2,0,2,0.4,2.6,1.2
			C349.8,265.2,350.1,266.4,350.1,267.8z"/>
		<path id="XMLID_58_" class="st0" d="M368.5,261.8h-4.2v1.6h2.1v7.3c0,0.5-0.1,0.9-0.3,1.3c-0.2,0.4-0.4,0.8-0.8,1.1
			c-0.3,0.3-0.7,0.5-1.2,0.7c-0.4,0.2-0.9,0.3-1.5,0.3c-0.9,0-1.5-0.2-1.9-0.7c-0.4-0.5-0.6-1.3-0.6-2.3v-9.2h-4.1v1.6h2v7.8
			c0,1.4,0.3,2.5,1,3.3c0.7,0.8,1.7,1.2,3.1,1.2c1,0,1.9-0.2,2.7-0.5c0.6-0.2,1.1-0.5,1.5-0.9v1.2h4.2v-1.6h-2.1V261.8z"/>
		<path id="XMLID_55_" class="st0" d="M382.3,261.5c-1,0-1.9,0.2-2.8,0.5c-0.6,0.2-1.2,0.6-1.7,1v-1.3h-4.2v1.6h2v14.4h-2v1.6h6.3
			v-1.6h-2.1v-3.6c0.5,0.4,1,0.8,1.6,1c0.8,0.3,1.7,0.4,2.7,0.4c1.7,0,3-0.6,3.9-1.7c0.9-1.1,1.3-2.6,1.3-4.4v-1.9
			c0-1.8-0.4-3.3-1.3-4.4C385.2,262.1,384,261.5,382.3,261.5z M385.3,267.7v1.7c0,1.4-0.3,2.6-0.9,3.4c-0.6,0.8-1.4,1.2-2.5,1.2
			c-1.3,0-2.3-0.4-3-1.1c-0.7-0.7-1.1-1.7-1.1-3v-2.4c0-1.4,0.4-2.5,1.1-3.3c0.7-0.8,1.7-1.1,3-1.1c1.1,0,1.9,0.4,2.5,1.2
			C385,265.2,385.3,266.3,385.3,267.7z"/>
	</g>
</g>
</svg>
