<?xml version="1.0" encoding="utf-8"?>
<!-- Generator: Adobe Illustrator 19.2.0, SVG Export Plug-In . SVG Version: 6.00 Build 0)  -->
<svg version="1.1" id="Layer_1" xmlns="http://www.w3.org/2000/svg" xmlns:xlink="http://www.w3.org/1999/xlink" x="0px" y="0px"
	 viewBox="0 0 262.1 91.8" style="enable-background:new 0 0 262.1 91.8;" xml:space="preserve">
<style type="text/css">
	.st0{fill:#3C3B3C;}
</style>
<g id="XMLID_53_">
	<path id="XMLID_98_" class="st0" d="M72.3,29.1l0.3,1.2h6.1V0.1H39.1l-0.6,0.1h-1.3h-0.1C27.2,1,18,5.5,11.2,12.7
		c-2.2,2.3-4.1,5-5.7,7.8V6.8l0,0V4.3c0,0,0,0,0-0.1V1.4C5.4,0.6,4.8,0,4,0H1.5C0.7,0,0,0.7,0,1.5v0.4l0,0V77l0,0v0.2
		c0,0.8,0.7,1.5,1.5,1.5H4c0.8,0,1.4-0.6,1.5-1.4v-2.8v-0.1V58.2c2.4,4.2,5.5,8.1,9.3,11.2c6.6,5.5,15,8.8,23.7,9.2H42h0.2
		c9.9-0.8,19.1-5.3,25.9-12.5c2-2.1,3.7-4.4,5.2-7V74v3l0,0v0.2c0,0.8,0.7,1.5,1.5,1.5h2.5c0.7,0,1.2-0.5,1.4-1.1V36.8H56.2l0,0
		h-0.3c-0.8,0.1-1.4,0.7-1.4,1.5v2.5c0,0.8,0.7,1.5,1.5,1.5h0.2l0,0h17C71.8,58,58.9,71.3,43,73.2V5.6C56.6,6.5,68.5,16.1,72.3,29.1
		z M73.4,5.4v13c-1.9-3.1-4.2-5.9-6.9-8.3c-1.9-1.8-4-3.3-6.3-4.7H73.4z M37.5,73.1C21,71.7,7.5,58.4,6.1,42.2h31.4V73.1z
		 M37.5,36.8H6.1C7.4,20.6,20.9,6.9,37.4,5.5h0.1L37.5,36.8L37.5,36.8z"/>
	<path id="XMLID_97_" class="st0" d="M1.2,91.6h76.3c0.7-0.1,1.3-0.6,1.3-1.3V88c0-0.7-0.5-1.2-1.1-1.3H1.2C0.5,86.8,0,87.4,0,88
		v2.4C0,91,0.5,91.5,1.2,91.6z"/>
	<path id="XMLID_96_" class="st0" d="M116.5,91.5h142.2c0.7-0.1,1.3-0.6,1.3-1.3v-2.4c0-0.7-0.5-1.2-1.1-1.3H116.6
		c-0.7,0.1-1.2,0.7-1.2,1.3v2.3C115.3,90.8,115.8,91.4,116.5,91.5z"/>
	<g id="XMLID_54_">
		<polygon id="XMLID_95_" class="st0" points="125.5,6.5 128,6.5 128,12.5 119,12.5 119,6.5 121.5,6.5 121.5,4.8 114.3,4.8 
			114.3,6.5 116.8,6.5 116.8,20.4 114.3,20.4 114.3,22 121.5,22 121.5,20.4 119,20.4 119,14.2 128,14.2 128,20.4 125.5,20.4 
			125.5,22 132.7,22 132.7,20.4 130.2,20.4 130.2,6.5 132.7,6.5 132.7,4.8 125.5,4.8 		"/>
		<path id="XMLID_92_" class="st0" d="M140.9,22.3c1.2,0,2.2-0.2,3-0.5c0.6-0.2,1.2-0.6,1.7-1.1v1.4h3.9v-1.6h-1.9v-8.2
			c0-1.3-0.4-2.4-1.2-3.1c-0.8-0.7-1.9-1.1-3.4-1.1h-1.1c-1.4,0-2.6,0.3-3.4,0.9c-0.8,0.6-1.2,1.5-1.2,2.6v0.7h2.1v-0.5
			c0-0.8,0.3-2,2.6-2h0.8c0.9,0,1.6,0.2,2,0.6c0.4,0.4,0.6,1.1,0.6,2.2V14H142c-1.7,0-3,0.3-3.9,1c-0.8,0.6-1.3,1.6-1.3,2.9v0.8
			c0,1.1,0.3,2,1,2.7C138.6,21.9,139.6,22.3,140.9,22.3z M141.4,20.7c-0.8,0-1.4-0.2-1.7-0.6c-0.4-0.4-0.6-1-0.6-1.6V18
			c0-0.8,0.2-1.4,0.8-1.8c0.5-0.4,1.5-0.6,2.8-0.6c0.8,0,1.8,0,2.9,0.1v1.5c-0.1,0.5-0.2,1-0.4,1.4c-0.2,0.4-0.5,0.8-0.8,1.1
			s-0.7,0.6-1.2,0.7C142.6,20.6,142.1,20.7,141.4,20.7z"/>
		<polygon id="XMLID_91_" class="st0" points="159,20.4 157,20.4 157,4.8 152.7,4.8 152.7,6.4 154.8,6.4 154.8,20.4 152.7,20.4 
			152.7,22 159,22 		"/>
		<path id="XMLID_90_" class="st0" d="M164.6,6.7h1.3c0.2,0,0.4,0,0.5-0.1s0.2-0.3,0.2-0.5V5c0-0.2-0.1-0.4-0.2-0.5
			s-0.3-0.1-0.5-0.1h-1.3c-0.2,0-0.3,0-0.4,0.1S164,4.8,164,5v1.1c0,0.2,0.1,0.4,0.2,0.5S164.4,6.7,164.6,6.7z"/>
		<polygon id="XMLID_89_" class="st0" points="168.4,20.4 166.3,20.4 166.3,8.4 162,8.4 162,10 164.2,10 164.2,20.4 162,20.4 
			162,22 168.4,22 		"/>
		<polygon id="XMLID_88_" class="st0" points="178.1,20.4 176,20.4 176,4.8 171.7,4.8 171.7,6.4 173.9,6.4 173.9,20.4 171.7,20.4 
			171.7,22 178.1,22 		"/>
		<path id="XMLID_85_" class="st0" d="M185.7,22.3c1.2,0,2.2-0.2,3-0.5c0.6-0.2,1.2-0.6,1.7-1.1v1.4h3.9v-1.6h-1.9v-8.2
			c0-1.3-0.4-2.4-1.2-3.1c-0.8-0.7-1.9-1.1-3.4-1.1h-1c-1.5,0-2.6,0.3-3.4,0.9c-0.8,0.6-1.3,1.5-1.3,2.6v0.7h2.1v-0.5
			c0-0.8,0.3-2,2.6-2h0.8c0.9,0,1.6,0.2,2,0.6c0.4,0.4,0.6,1.1,0.6,2.2V14h-3.4c-1.7,0-3,0.3-3.9,1c-0.8,0.6-1.3,1.6-1.3,2.9v0.8
			c0,1.1,0.3,2,1,2.7C183.4,21.9,184.4,22.3,185.7,22.3z M186.1,20.7c-0.8,0-1.4-0.2-1.8-0.6c-0.4-0.4-0.6-1-0.6-1.6V18
			c0-0.8,0.2-1.4,0.8-1.8c0.5-0.4,1.5-0.6,2.8-0.6c0.8,0,1.8,0,2.9,0.1v1.5c-0.1,0.5-0.2,1-0.4,1.4c-0.2,0.4-0.5,0.8-0.8,1.1
			s-0.7,0.6-1.2,0.8C187.3,20.6,186.8,20.7,186.1,20.7z"/>
		<path id="XMLID_82_" class="st0" d="M204.7,26.2c1.8,0,3.1-0.3,3.9-1s1.3-1.8,1.3-3.3V10h2V8.4h-4.1v1.3c-0.5-0.4-1-0.8-1.7-1
			c-0.9-0.3-1.9-0.5-2.9-0.5c-0.8,0-1.5,0.2-2.1,0.4c-0.6,0.3-1.2,0.7-1.6,1.2s-0.8,1.2-1,1.9s-0.3,1.5-0.3,2.4V16
			c0,0.9,0.1,1.7,0.3,2.4c0.2,0.7,0.6,1.4,1,1.9s1,0.9,1.6,1.2s1.3,0.4,2.1,0.4c1.1,0,2-0.2,2.9-0.5c0.6-0.2,1.2-0.6,1.6-1v1.3
			c0,1-0.2,1.8-0.7,2.2s-1.3,0.7-2.4,0.7h-0.9c-1,0-1.7-0.1-2.1-0.4c-0.4-0.3-0.6-0.7-0.7-1.3v-0.2H200c-0.2,0-0.3,0-0.4,0
			c-0.3,0-0.5,0.1-0.8,0.5l-0.1,0.1v0.1c0.1,0.9,0.5,1.7,1.4,2.2c0.8,0.5,1.9,0.7,3.4,0.7L204.7,26.2L204.7,26.2z M207.7,15v0.3
			c0,0.8-0.1,1.5-0.2,2.1c-0.2,0.6-0.4,1.2-0.7,1.6c-0.3,0.4-0.6,0.8-0.9,1s-0.7,0.4-1.1,0.4h-1.2c-0.5,0-0.9-0.1-1.3-0.3
			s-0.8-0.5-1.1-0.9c-0.3-0.4-0.5-0.9-0.7-1.4c-0.2-0.6-0.2-1.2-0.2-1.8v-1.7c0-0.7,0.1-1.3,0.2-1.9c0.2-0.5,0.4-1,0.7-1.4
			c0.3-0.4,0.6-0.7,1-0.9s0.8-0.3,1.3-0.3h1.2c0.4,0,0.8,0.1,1.2,0.4c0.4,0.3,0.7,0.6,0.9,1.1c0.3,0.5,0.5,1,0.6,1.7
			C207.6,13.5,207.7,14.2,207.7,15z"/>
		<polygon id="XMLID_81_" class="st0" points="221.4,20.4 219.3,20.4 219.3,8.4 214.9,8.4 214.9,10 217.1,10 217.1,20.4 214.9,20.4 
			214.9,22 221.4,22 		"/>
		<path id="XMLID_80_" class="st0" d="M217.5,6.7h1.3c0.2,0,0.4,0,0.5-0.1c0.2-0.1,0.2-0.4,0.2-0.5V5c0-0.1,0-0.3-0.2-0.5
			c-0.1-0.1-0.3-0.1-0.5-0.1h-1.3c-0.2,0-0.3,0-0.4,0.1c-0.2,0.1-0.2,0.4-0.2,0.5v1.1c0,0.1,0,0.3,0.2,0.5
			C217.2,6.7,217.4,6.7,217.5,6.7z"/>
		<path id="XMLID_79_" class="st0" d="M234.9,17.6c-0.1,0.4-0.1,0.7-0.3,1.1c-0.1,0.4-0.3,0.7-0.5,1s-0.5,0.5-0.8,0.7
			s-0.6,0.3-1,0.3h-1.1c-0.6,0-1.1-0.1-1.5-0.3s-0.8-0.5-1.1-0.9c-0.3-0.4-0.5-0.9-0.7-1.5s-0.3-1.2-0.3-1.9v-1.7
			c0-0.7,0.1-1.4,0.2-1.9c0.2-0.6,0.4-1,0.7-1.4c0.3-0.4,0.7-0.7,1.1-0.9s0.9-0.3,1.5-0.3c1.1,0,2,0.2,2.6,0.6
			c0.6,0.4,1,1.1,1.1,1.8V13h1.8V8.4h-1.4v1.1c-0.4-0.3-0.9-0.6-1.4-0.8c-0.7-0.3-1.7-0.5-2.8-0.5c-1.8,0-3.1,0.6-4.1,1.6
			c-0.9,1.1-1.4,2.6-1.4,4.5v2c0,0.9,0.1,1.8,0.4,2.5c0.2,0.7,0.6,1.4,1.1,1.9s1,0.9,1.7,1.2s1.5,0.4,2.3,0.4h1.6
			c1.1,0,2-0.4,2.8-1.2c0.7-0.8,1.2-1.9,1.3-3.3v-0.3L234.9,17.6L234.9,17.6z"/>
		<path id="XMLID_78_" class="st0" d="M129.9,37v-5.9h-1.5v1.5c-0.5-0.5-1.2-0.8-2-1.2c-1.1-0.4-2.4-0.6-4-0.6
			c-1.2,0-2.3,0.2-3.2,0.5c-0.9,0.3-1.7,0.8-2.4,1.4c-0.6,0.6-1.2,1.4-1.5,2.3c-0.3,0.9-0.5,1.9-0.5,3v3.1c0,1.1,0.2,2.1,0.5,3
			s0.8,1.7,1.5,2.3s1.5,1.1,2.4,1.5c0.9,0.3,2,0.5,3.1,0.5c1.9,0,3.6-0.4,4.9-1.1c1.4-0.7,2.3-1.8,2.7-3.3v-1.5h-2.1v1
			c-0.4,1.1-1,1.9-1.9,2.4s-2.1,0.8-3.4,0.8c-1.7,0-3-0.5-3.9-1.5s-1.4-2.4-1.4-4.1v-3c0-1.7,0.5-3.1,1.4-4.1s2.2-1.5,4-1.5
			c0.7,0,1.3,0.1,1.9,0.2c0.6,0.1,1.1,0.4,1.6,0.6c0.5,0.3,0.9,0.6,1.2,1.1c0.3,0.4,0.6,0.9,0.7,1.5v1h1.9V37z"/>
		<path id="XMLID_75_" class="st0" d="M141.5,34.4h-1.4c-1.7,0-3.1,0.6-4,1.7c-0.9,1.1-1.4,2.6-1.4,4.5v1.8c0,1.9,0.5,3.4,1.4,4.5
			s2.3,1.7,4,1.7h1.4c1.7,0,3.1-0.6,4-1.7c0.9-1.1,1.4-2.6,1.4-4.5v-1.8c0-1.9-0.5-3.4-1.4-4.5C144.6,34.9,143.3,34.4,141.5,34.4z
			 M144.8,40.7v1.5c0,1.4-0.3,2.6-0.9,3.4c-0.6,0.8-1.5,1.2-2.6,1.2h-0.9c-1.2,0-2-0.4-2.6-1.2s-0.9-2-0.9-3.4v-1.5
			c0-1.5,0.3-2.6,0.9-3.5c0.6-0.8,1.5-1.2,2.6-1.2h0.9c1.1,0,2,0.4,2.6,1.2S144.8,39.2,144.8,40.7z"/>
		<path id="XMLID_74_" class="st0" d="M196.7,48.3v-1.6h-2.1V34.6h-4.2v1.6h2.1v7.3c0,0.5-0.1,0.9-0.3,1.3c-0.2,0.4-0.4,0.8-0.8,1
			c-0.3,0.3-0.7,0.5-1.2,0.7c-0.4,0.2-0.9,0.3-1.5,0.3c-0.9,0-1.5-0.2-1.9-0.7s-0.6-1.3-0.6-2.4v-9.2h-4.1v1.6h2v7.8
			c0,1.4,0.3,2.5,1,3.3s1.7,1.2,3.1,1.2c1,0,1.9-0.2,2.7-0.5c0.6-0.2,1.1-0.5,1.5-0.9v1.2L196.7,48.3L196.7,48.3z"/>
		<path id="XMLID_73_" class="st0" d="M152.6,46.7h-2.2v1.6h6.3v-1.6h-2v-7.3c0-0.5,0.1-0.9,0.3-1.3c0.2-0.4,0.4-0.8,0.7-1.1
			c0.3-0.3,0.7-0.5,1.2-0.7s1-0.2,1.5-0.2c0.8,0,1.4,0.2,1.8,0.7s0.6,1.3,0.6,2.3v7.6h-2.2v1.6h6.3v-1.6h-2v-7.9
			c0-1.4-0.3-2.5-1-3.2c-0.7-0.8-1.7-1.1-3.1-1.1c-0.9,0-1.8,0.1-2.6,0.4c-0.6,0.2-1.1,0.5-1.5,0.9v-1h-4.3v1.6h2.2L152.6,46.7
			L152.6,46.7z"/>
		<path id="XMLID_72_" class="st0" d="M176.8,40.9c-0.6-0.2-1.3-0.3-2-0.3s-1.4-0.1-1.9-0.2c-0.6-0.1-1-0.3-1.4-0.5
			c-0.3-0.2-0.5-0.6-0.5-1.2v-0.6c0-0.6,0.2-1.1,0.6-1.5s1.1-0.6,1.9-0.6c1.1,0,2,0.2,2.6,0.5s0.9,0.7,0.9,1.2v1.2h1.8v-4.3h-1.4
			v0.8c-0.4-0.3-0.9-0.5-1.5-0.7c-0.8-0.2-1.7-0.3-2.8-0.3c-1.3,0-2.3,0.3-3.1,1c-0.8,0.7-1.2,1.6-1.2,2.8V39c0,0.9,0.2,1.6,0.7,2
			c0.4,0.4,1,0.7,1.6,0.9s1.3,0.3,2,0.3s1.3,0.1,1.9,0.2c0.6,0.1,1,0.3,1.4,0.6c0.3,0.3,0.5,0.7,0.5,1.3v0.4c0,0.8-0.2,1.3-0.7,1.7
			s-1.1,0.6-2,0.6c-1,0-1.9-0.2-2.7-0.6c-0.7-0.4-1-1-1.1-1.7l-0.3-0.7h-1.6v4.6h1.4v-1c0.4,0.3,1,0.6,1.6,0.8
			c0.8,0.2,1.7,0.3,2.7,0.3c1.5,0,2.7-0.3,3.5-0.9c0.8-0.6,1.3-1.6,1.3-2.8v-0.7c0-0.9-0.2-1.6-0.7-2.1
			C178,41.4,177.4,41.1,176.8,40.9z"/>
		<polygon id="XMLID_71_" class="st0" points="203.6,31.1 199.3,31.1 199.3,32.7 201.5,32.7 201.5,46.7 199.3,46.7 199.3,48.3 
			205.7,48.3 205.7,46.7 203.6,46.7 		"/>
		<path id="XMLID_70_" class="st0" d="M214.9,45.3c0,0.8-0.1,1.2-0.2,1.3c-0.1,0.2-0.4,0.3-0.8,0.3c-0.5,0-1.1-0.1-1.1-1.3v-9.4h3.3
			v-1.6h-3.3v-3l-2.2,0.1v2.8h-2.3v1.6h2.3v9.6c0,0.9,0.2,1.6,0.7,2.1s1.2,0.7,2.2,0.7c0.9,0,1.6-0.2,2.2-0.7
			c0.6-0.4,0.9-1.1,0.9-1.9v-0.8l-1.7-0.1V45.3z"/>
		<polygon id="XMLID_69_" class="st0" points="224.1,34.6 219.8,34.6 219.8,36.2 222,36.2 222,46.7 219.8,46.7 219.8,48.3 
			226.2,48.3 226.2,46.7 224.1,46.7 		"/>
		<path id="XMLID_68_" class="st0" d="M240.4,32.9h1.3c0.2,0,0.4,0,0.5-0.1s0.2-0.3,0.2-0.5v-1.1c0-0.2-0.1-0.4-0.2-0.5
			s-0.3-0.1-0.5-0.1h-1.3c-0.2,0-0.3,0-0.5,0.1c-0.1,0.1-0.2,0.3-0.2,0.5v1.1c0,0.2,0.1,0.4,0.2,0.5
			C240.1,32.9,240.2,32.9,240.4,32.9z"/>
		<path id="XMLID_67_" class="st0" d="M242,38.7c0-1.4-0.3-2.5-1-3.2c-0.7-0.8-1.7-1.1-3.1-1.1c-0.9,0-1.8,0.1-2.6,0.4
			c-0.6,0.2-1.1,0.5-1.5,0.9v-1h-4.3v1.6h2.2v10.5h-2.2v1.6h6.3v-1.6h-2v-7.3c0-0.5,0.1-0.9,0.3-1.3c0.2-0.4,0.4-0.8,0.8-1.1
			c0.3-0.3,0.7-0.5,1.2-0.7s1-0.2,1.5-0.2c0.8,0,1.4,0.2,1.8,0.7s0.6,1.3,0.6,2.3v7.6h-2.2v1.6h6.4v-1.6h-2v-8.1H242z"/>
		<path id="XMLID_64_" class="st0" d="M257.5,34.6v1.3c-0.5-0.4-1-0.8-1.7-1c-0.9-0.3-1.9-0.5-2.9-0.5c-0.8,0-1.5,0.1-2.1,0.4
			c-0.6,0.3-1.2,0.7-1.6,1.2s-0.7,1.2-1,1.9c-0.2,0.7-0.3,1.6-0.3,2.4v1.9c0,0.9,0.1,1.7,0.3,2.4c0.2,0.7,0.6,1.4,1,1.9
			s1,0.9,1.6,1.2s1.3,0.4,2.1,0.4c1.1,0,2-0.2,2.9-0.5c0.6-0.2,1.2-0.6,1.6-1v1.3c0,1-0.2,1.8-0.7,2.2s-1.3,0.7-2.4,0.7h-0.9
			c-1,0-1.7-0.1-2.1-0.4c-0.4-0.3-0.6-0.7-0.7-1.3v-0.2h-0.8c-0.2,0-0.3,0-0.4,0c-0.3,0-0.5,0.1-0.8,0.5l-0.1,0.1v0.1
			c0.1,0.9,0.5,1.7,1.4,2.2c0.8,0.5,1.9,0.7,3.4,0.7h1.2c1.8,0,3.1-0.3,3.9-1s1.3-1.8,1.3-3.3V36.3h2v-1.6L257.5,34.6L257.5,34.6z
			 M257.5,41.2v0.3c0,0.8-0.1,1.5-0.2,2.1c-0.2,0.6-0.4,1.2-0.6,1.6c-0.3,0.4-0.6,0.8-0.9,1s-0.7,0.3-1.1,0.3h-1.2
			c-0.5,0-1-0.1-1.4-0.3s-0.8-0.5-1.1-0.9c-0.3-0.4-0.5-0.9-0.7-1.4c-0.2-0.6-0.3-1.2-0.3-1.8v-1.7c0-0.7,0.1-1.3,0.2-1.9
			c0.2-0.5,0.4-1,0.7-1.4c0.3-0.4,0.6-0.7,1-0.9s0.8-0.3,1.3-0.3h1.2c0.4,0,0.8,0.1,1.1,0.4c0.4,0.3,0.7,0.6,0.9,1.1
			c0.3,0.5,0.5,1,0.6,1.7C257.4,39.7,257.5,40.4,257.5,41.2z"/>
		<path id="XMLID_63_" class="st0" d="M124,67.3h3.5v2.3c-0.2,1.1-0.8,2-1.8,2.6s-2.3,0.9-3.8,0.9c-1.7,0-3-0.5-3.9-1.5
			s-1.4-2.3-1.4-4v-3.2c0-1.7,0.5-3.1,1.4-4c0.9-1,2.2-1.5,3.9-1.5c1.5,0,2.7,0.3,3.7,0.9c1,0.6,1.6,1.3,1.9,2.4v1.1h2v-5.9H128v1.5
			c-0.5-0.5-1.3-0.9-2.1-1.2c-1.1-0.4-2.5-0.6-4-0.6c-2.4,0-4.3,0.6-5.6,1.9c-1.3,1.3-2,3.1-2,5.3v3.1c0,1.1,0.2,2.1,0.5,3
			s0.8,1.7,1.5,2.3c0.6,0.6,1.4,1.1,2.3,1.5c0.9,0.3,2,0.5,3.1,0.5c1.4,0,2.7-0.2,3.9-0.6c1-0.3,1.8-0.8,2.4-1.3v1.7h1.6v-7.3h1.7
			v-1.6H124L124,67.3L124,67.3z"/>
		<path id="XMLID_62_" class="st0" d="M142.3,60.9c-0.5,0.1-1,0.2-1.4,0.3c-0.5,0.2-0.9,0.4-1.3,0.6c-0.2,0.1-0.3,0.2-0.4,0.3v-1.2
			H135v1.6h2.1V73H135v1.6h6.7V73h-2.4v-8c0-0.5,0.1-0.8,0.4-1.1c0.2-0.3,0.6-0.6,1-0.7c0.4-0.2,0.9-0.3,1.4-0.4s1.1-0.1,1.6-0.1
			h0.3v-0.6c0-0.2,0-0.5,0-1v-0.3h-0.3C143.2,60.8,142.7,60.8,142.3,60.9z"/>
		<path id="XMLID_59_" class="st0" d="M154.6,60.8h-1.4c-1.7,0-3.1,0.6-4,1.7s-1.4,2.6-1.4,4.5v1.8c0,1.9,0.5,3.4,1.4,4.5
			s2.3,1.7,4,1.7h1.4c1.7,0,3.1-0.6,4-1.7s1.4-2.6,1.4-4.5V67c0-1.9-0.5-3.4-1.4-4.5C157.7,61.3,156.3,60.8,154.6,60.8z M157.9,67.1
			v1.5c0,1.4-0.3,2.6-0.9,3.5c-0.6,0.8-1.5,1.2-2.6,1.2h-0.8c-1.2,0-2-0.4-2.6-1.2c-0.6-0.8-0.9-2-0.9-3.5v-1.5
			c0-1.4,0.3-2.6,0.9-3.4s1.4-1.2,2.6-1.2h0.8c1.2,0,2,0.4,2.6,1.2C157.6,64.4,157.9,65.6,157.9,67.1z"/>
		<path id="XMLID_58_" class="st0" d="M176.2,61H172v1.6h2.1v7.3c0,0.5-0.1,0.9-0.3,1.3c-0.2,0.4-0.4,0.8-0.8,1.1
			c-0.3,0.3-0.7,0.5-1.2,0.7c-0.4,0.2-0.9,0.3-1.5,0.3c-0.9,0-1.5-0.2-1.9-0.7s-0.6-1.3-0.6-2.3v-9.2h-4.1v1.6h2v7.8
			c0,1.4,0.3,2.5,1,3.3s1.7,1.2,3.1,1.2c1,0,1.9-0.2,2.7-0.5c0.6-0.2,1.1-0.5,1.5-0.9v1.2h4.2v-1.6h-2.1L176.2,61L176.2,61z"/>
		<path id="XMLID_55_" class="st0" d="M190,60.8c-1,0-1.9,0.2-2.8,0.5c-0.6,0.2-1.2,0.6-1.7,1V61h-4.2v1.6h2V77h-2v1.6h6.3V77h-2.1
			v-3.6c0.5,0.4,1,0.8,1.6,1c0.8,0.3,1.7,0.4,2.7,0.4c1.7,0,3-0.6,3.9-1.7s1.3-2.6,1.3-4.4v-1.9c0-1.8-0.4-3.3-1.3-4.4
			C193,61.3,191.7,60.8,190,60.8z M193,67v1.7c0,1.4-0.3,2.6-0.9,3.4s-1.4,1.2-2.5,1.2c-1.3,0-2.3-0.4-3-1.1s-1.1-1.7-1.1-3v-2.4
			c0-1.4,0.4-2.5,1.1-3.3s1.7-1.1,3-1.1c1.1,0,1.9,0.4,2.5,1.2C192.7,64.4,193,65.5,193,67z"/>
	</g>
</g>
</svg>
