<?xml version="1.0" encoding="utf-8"?>
<!-- Generator: Adobe Illustrator 19.0.0, SVG Export Plug-In . SVG Version: 6.00 Build 0)  -->
<svg version="1.0" id="Layer_1" xmlns="http://www.w3.org/2000/svg" xmlns:xlink="http://www.w3.org/1999/xlink" x="0px" y="0px"
	 viewBox="0 0 640 480" style="enable-background:new 0 0 640 480;" xml:space="preserve">
<style type="text/css">
	.st0{fill:#AF8D54;}
	.st1{fill:#3B3A3C;}
	.st2{fill:#4F8CAD;}
</style>
<g id="XMLID_2_">
	<polygon id="XMLID_52_" class="st0" points="344.4,122.4 378,122.4 378,154.1 	"/>
	<path id="XMLID_47_" class="st1" d="M372.1,163.8l0.5,1.9h9.8v-48.5l-63.7,0l-0.9,0.1h-2.1l-0.2,0c-16,1.3-30.8,8.5-41.7,20.1
		c-3.5,3.7-6.6,8-9.1,12.5V128l0,0v-4c0,0,0-0.1,0-0.1v-4.6c-0.1-1.3-1.1-2.2-2.4-2.2h-4c-1.3,0-2.4,1.1-2.4,2.4v0.7l0,0v120.7l0,0
		v0.3c0,1.3,1.1,2.4,2.4,2.4h4c1.2,0,2.3-1,2.4-2.3v-4.6c0,0,0-0.1,0-0.2v-26c3.8,6.8,8.9,13,15,18c10.6,8.8,24.2,14.1,38.1,14.8
		l5.6,0.1l0.3,0c16-1.3,30.8-8.5,41.7-20.1c3.1-3.3,6-7.1,8.3-11.2v23.9l0,4.8h0v0.3c0,1.3,1.1,2.4,2.4,2.4h4c1.1,0,2-0.8,2.3-1.8
		v-65.6h-36.2l0,0h-0.5c-1.3,0.1-2.2,1.1-2.2,2.4v4c0,1.3,1.1,2.4,2.4,2.4h0.3v0h27.3c-2.2,25.3-23.1,46.6-48.6,49.6V125.9
		C346.9,127.6,366.1,142.9,372.1,163.8z M373.9,125.8v20.8c-3-4.9-6.8-9.5-11.1-13.3c-3.1-2.9-6.5-5.4-10.1-7.5H373.9z M316.2,234.6
		c-26.5-2.3-48.2-23.6-50.5-49.6h50.5V234.6z M316.2,176.2h-50.5c2-26.1,23.8-48,50.3-50.3h0.2V176.2z"/>
	<path id="XMLID_46_" class="st1" d="M257.8,264.4l122.7,0c1.1-0.1,2-1,2-2.2l0-3.8c0-1.1-0.8-1.9-1.8-2.1l-122.9,0
		c-1.1,0.2-1.9,1-1.9,2.1v3.8C255.9,263.3,256.8,264.2,257.8,264.4z"/>
	<path id="XMLID_45_" class="st2" d="M257.8,363l122.7,0c1.1-0.1,2-1,2-2.2l0-3.8c0-1.1-0.8-1.9-1.8-2.1l-122.9,0
		c-1.1,0.2-1.9,1-1.9,2.1v3.8C255.9,361.9,256.8,362.8,257.8,363z"/>
	<g id="XMLID_3_">
		<polygon id="XMLID_44_" class="st2" points="268.3,283.5 270.4,283.5 270.4,288.6 262.7,288.6 262.7,283.5 264.9,283.5 
			264.9,282.2 258.8,282.2 258.8,283.5 260.9,283.5 260.9,295.3 258.8,295.3 258.8,296.7 264.9,296.7 264.9,295.3 262.7,295.3 
			262.7,290.1 270.4,290 270.4,295.3 268.3,295.3 268.3,296.7 274.4,296.7 274.4,295.3 272.2,295.3 272.2,283.5 274.4,283.5 
			274.4,282.2 268.3,282.2 		"/>
		<path id="XMLID_41_" class="st2" d="M281.3,296.9c1,0,1.8-0.1,2.5-0.4c0.5-0.2,1-0.5,1.4-0.9l0,1.1h3.3v-1.4H287v-6.9
			c0-1.1-0.3-2-1-2.6c-0.6-0.6-1.6-0.9-2.9-0.9h-0.9c-1.2,0-2.2,0.2-2.9,0.7c-0.7,0.5-1,1.2-1,2.2v0.6h1.8V288
			c0-0.7,0.2-1.7,2.2-1.7h0.7c0.8,0,1.3,0.2,1.7,0.5c0.4,0.3,0.5,1,0.5,1.8v1.2h-2.9c-1.5,0-2.6,0.3-3.3,0.8
			c-0.7,0.5-1.1,1.4-1.1,2.4v0.7c0,0.9,0.3,1.7,0.9,2.3C279.4,296.6,280.2,296.9,281.3,296.9z M281.7,295.5c-0.7,0-1.2-0.2-1.5-0.5
			c-0.3-0.4-0.5-0.8-0.5-1.3v-0.4c0-0.7,0.2-1.2,0.7-1.5c0.4-0.4,1.3-0.5,2.4-0.5c0.7,0,1.5,0,2.4,0.1v1.2c-0.1,0.4-0.2,0.9-0.4,1.2
			c-0.2,0.4-0.4,0.7-0.7,1c-0.3,0.3-0.6,0.5-1,0.6C282.7,295.5,282.3,295.5,281.7,295.5z"/>
		<polygon id="XMLID_40_" class="st2" points="296.6,295.3 294.9,295.3 294.9,282.2 291.2,282.2 291.2,283.5 293.1,283.5 
			293.1,295.3 291.2,295.3 291.2,296.7 296.6,296.7 		"/>
		<path id="XMLID_39_" class="st2" d="M301.3,283.7h1.1c0.2,0,0.3,0,0.4-0.1c0.1-0.1,0.2-0.2,0.2-0.4v-1c0-0.2,0-0.3-0.2-0.4
			c-0.1-0.1-0.2-0.1-0.4-0.1h-1.1c-0.2,0-0.3,0-0.4,0.1c-0.1,0.1-0.1,0.2-0.1,0.4v0.9c0,0.2,0,0.3,0.1,0.4
			C301,283.7,301.2,283.7,301.3,283.7z"/>
		<polygon id="XMLID_38_" class="st2" points="304.5,295.3 302.8,295.3 302.8,285.1 299.1,285.1 299.1,286.5 301,286.5 301,295.3 
			299.1,295.3 299.1,296.7 304.5,296.7 		"/>
		<polygon id="XMLID_37_" class="st2" points="312.7,295.3 311,295.3 311,282.2 307.3,282.2 307.3,283.5 309.2,283.5 309.2,295.3 
			307.3,295.3 307.3,296.7 312.7,296.7 		"/>
		<path id="XMLID_34_" class="st2" d="M319.1,296.9c1,0,1.8-0.1,2.5-0.4c0.5-0.2,1-0.5,1.5-0.9l0,1.1h3.3v-1.4h-1.6v-6.9
			c0-1.1-0.3-2-1-2.6c-0.6-0.6-1.6-0.9-2.9-0.9h-0.9c-1.2,0-2.2,0.2-2.9,0.7c-0.7,0.5-1.1,1.2-1.1,2.2v0.6h1.8V288
			c0-0.7,0.2-1.7,2.2-1.7h0.7c0.8,0,1.3,0.2,1.7,0.5c0.3,0.3,0.5,1,0.5,1.8v1.2h-2.9c-1.5,0-2.6,0.3-3.3,0.8
			c-0.7,0.5-1.1,1.4-1.1,2.4v0.7c0,0.9,0.3,1.7,0.9,2.3C317.2,296.6,318,296.9,319.1,296.9z M319.5,295.5c-0.7,0-1.2-0.2-1.5-0.5
			c-0.3-0.4-0.5-0.8-0.5-1.3v-0.4c0-0.7,0.2-1.2,0.6-1.5c0.5-0.4,1.3-0.5,2.4-0.5c0.7,0,1.5,0,2.4,0.1l0,1.2
			c-0.1,0.4-0.2,0.9-0.4,1.2c-0.2,0.4-0.4,0.7-0.7,1c-0.3,0.3-0.6,0.5-1,0.6C320.6,295.5,320.1,295.5,319.5,295.5z"/>
		<path id="XMLID_31_" class="st2" d="M335.2,300.3c1.5,0,2.6-0.3,3.3-0.8c0.7-0.6,1.1-1.5,1.1-2.8v-10.1h1.7v-1.4h-3.5v1.1
			c-0.4-0.4-0.9-0.7-1.4-0.9c-0.8-0.3-1.6-0.4-2.5-0.4c-0.7,0-1.3,0.1-1.8,0.4c-0.5,0.2-1,0.6-1.3,1c-0.4,0.4-0.6,1-0.8,1.6
			c-0.2,0.6-0.3,1.3-0.3,2.1v1.6c0,0.7,0.1,1.4,0.3,2c0.2,0.6,0.5,1.2,0.8,1.6c0.4,0.4,0.8,0.8,1.3,1c0.5,0.2,1.1,0.4,1.8,0.4
			c0.9,0,1.7-0.1,2.5-0.4c0.5-0.2,1-0.5,1.4-0.9v1.1c0,0.9-0.2,1.5-0.6,1.9c-0.4,0.4-1.1,0.6-2,0.6h-0.8c-0.8,0-1.4-0.1-1.8-0.4
			c-0.3-0.2-0.5-0.6-0.6-1.1l0-0.2h-0.8c-0.2,0-0.3,0-0.3,0c-0.2,0-0.4,0.1-0.7,0.4l-0.1,0.1l0,0.1c0.1,0.8,0.5,1.4,1.1,1.8
			c0.7,0.4,1.6,0.6,2.8,0.6H335.2z M337.8,290.7v0.3c0,0.7-0.1,1.2-0.2,1.8c-0.1,0.5-0.3,1-0.6,1.4c-0.2,0.4-0.5,0.7-0.8,0.9
			c-0.3,0.2-0.6,0.3-0.9,0.3h-1c-0.4,0-0.8-0.1-1.1-0.3c-0.3-0.2-0.6-0.4-0.9-0.8c-0.3-0.3-0.5-0.7-0.6-1.2c-0.1-0.5-0.2-1-0.2-1.6
			v-1.5c0-0.6,0.1-1.1,0.2-1.6c0.1-0.5,0.3-0.9,0.6-1.2c0.2-0.3,0.5-0.6,0.9-0.8c0.3-0.2,0.7-0.3,1.1-0.3h1c0.4,0,0.7,0.1,1,0.3
			c0.3,0.2,0.6,0.5,0.8,0.9c0.2,0.4,0.4,0.9,0.5,1.4C337.7,289.5,337.8,290.1,337.8,290.7z"/>
		<polygon id="XMLID_30_" class="st2" points="349.3,295.3 347.5,295.3 347.5,285.1 343.9,285.1 343.9,286.5 345.7,286.5 
			345.7,295.3 343.9,295.3 343.9,296.7 349.3,296.7 		"/>
		<path id="XMLID_29_" class="st2" d="M346.1,283.7h1.1c0.2,0,0.3,0,0.4-0.1c0.2-0.1,0.2-0.3,0.2-0.4v-1c0-0.1,0-0.3-0.2-0.4
			c-0.1-0.1-0.2-0.1-0.4-0.1h-1.1c-0.2,0-0.3,0-0.4,0.1c-0.2,0.1-0.2,0.3-0.2,0.4v0.9c0,0.1,0,0.3,0.2,0.4
			C345.8,283.7,345.9,283.7,346.1,283.7z"/>
		<path id="XMLID_28_" class="st2" d="M360.7,293c0,0.3-0.1,0.6-0.2,0.9c-0.1,0.3-0.2,0.6-0.4,0.8c-0.2,0.2-0.4,0.4-0.6,0.6
			c-0.2,0.1-0.5,0.2-0.8,0.2h-0.9c-0.5,0-0.9-0.1-1.3-0.3c-0.4-0.2-0.7-0.4-0.9-0.8c-0.3-0.3-0.5-0.8-0.6-1.2
			c-0.1-0.5-0.2-1-0.2-1.6v-1.4c0-0.6,0.1-1.1,0.2-1.6c0.1-0.5,0.3-0.9,0.6-1.2c0.3-0.3,0.6-0.6,0.9-0.8c0.3-0.2,0.8-0.3,1.2-0.3
			c0.9,0,1.7,0.2,2.2,0.6c0.5,0.4,0.8,0.9,1,1.6v0.6h1.6v-3.9h-1.2v0.9c-0.4-0.3-0.8-0.5-1.2-0.7c-0.6-0.3-1.4-0.4-2.4-0.4
			c-1.5,0-2.6,0.5-3.4,1.4c-0.8,0.9-1.2,2.2-1.2,3.8v1.7c0,0.8,0.1,1.5,0.3,2.1c0.2,0.6,0.5,1.2,0.9,1.6c0.4,0.5,0.9,0.8,1.5,1
			c0.6,0.2,1.2,0.4,1.9,0.4h1.4c0.9,0,1.7-0.4,2.4-1c0.6-0.7,1-1.6,1.1-2.8l0-0.2h-1.6L360.7,293z"/>
		<path id="XMLID_27_" class="st2" d="M272,309.3v-5h-1.3v1.3c-0.4-0.4-1-0.7-1.7-1c-0.9-0.3-2-0.5-3.3-0.5c-1,0-1.9,0.1-2.7,0.4
			c-0.8,0.3-1.5,0.7-2,1.2c-0.5,0.5-1,1.2-1.3,1.9c-0.3,0.7-0.4,1.6-0.4,2.5v2.6c0,0.9,0.1,1.8,0.4,2.5c0.3,0.8,0.7,1.4,1.3,1.9
			c0.6,0.5,1.2,1,2,1.2c0.8,0.3,1.7,0.4,2.6,0.4c1.6,0,3-0.3,4.1-0.9c1.1-0.6,1.9-1.6,2.3-2.8l0-1.3h-1.9v0.8
			c-0.3,0.9-0.8,1.6-1.6,2c-0.8,0.5-1.7,0.7-2.9,0.7c-1.5,0-2.6-0.4-3.3-1.3c-0.8-0.8-1.2-2-1.2-3.5v-2.6c0-1.5,0.4-2.6,1.2-3.5
			c0.8-0.8,1.9-1.2,3.4-1.2c0.5,0,1.1,0.1,1.6,0.2c0.5,0.1,0.9,0.3,1.3,0.5c0.4,0.2,0.7,0.5,1,0.9c0.3,0.4,0.5,0.8,0.6,1.2v0.8H272z
			"/>
		<path id="XMLID_24_" class="st2" d="M281.8,307.1h-1.2c-1.5,0-2.6,0.5-3.4,1.4c-0.8,0.9-1.2,2.2-1.2,3.8v1.5
			c0,1.6,0.4,2.9,1.2,3.8c0.8,0.9,1.9,1.4,3.4,1.4h1.2c1.4,0,2.6-0.5,3.4-1.4c0.8-0.9,1.2-2.2,1.2-3.8v-1.5c0-1.6-0.4-2.9-1.2-3.8
			C284.4,307.6,283.3,307.1,281.8,307.1z M284.6,312.4v1.3c0,1.2-0.3,2.2-0.8,2.9c-0.5,0.7-1.2,1-2.2,1h-0.7c-1,0-1.7-0.3-2.2-1
			c-0.5-0.7-0.8-1.7-0.8-2.9v-1.3c0-1.2,0.3-2.2,0.8-2.9c0.5-0.7,1.2-1,2.2-1h0.7c1,0,1.7,0.3,2.2,1
			C284.3,310.2,284.6,311.2,284.6,312.4z"/>
		<path id="XMLID_23_" class="st2" d="M328.4,318.9v-1.4h-1.8v-10.2h-3.6v1.4h1.8v6.2c0,0.4-0.1,0.8-0.2,1.1
			c-0.2,0.4-0.4,0.6-0.7,0.9c-0.3,0.3-0.6,0.5-1,0.6c-0.4,0.1-0.8,0.2-1.2,0.2c-0.8,0-1.3-0.2-1.6-0.6c-0.3-0.4-0.5-1.1-0.5-2v-7.8
			h-3.5v1.4h1.7v6.6c0,1.2,0.3,2.1,0.8,2.8c0.6,0.7,1.4,1,2.6,1c0.9,0,1.6-0.1,2.3-0.4c0.5-0.2,0.9-0.5,1.3-0.8v1H328.4z"/>
		<path id="XMLID_22_" class="st2" d="M291.2,317.5h-1.8v1.4h5.3v-1.4H293v-6.2c0-0.4,0.1-0.8,0.2-1.1c0.2-0.3,0.4-0.6,0.6-0.9
			c0.3-0.2,0.6-0.4,1-0.6c0.4-0.1,0.8-0.2,1.3-0.2c0.7,0,1.2,0.2,1.5,0.6c0.3,0.4,0.5,1.1,0.5,2v6.4h-1.9v1.4h5.4v-1.4h-1.7v-6.7
			c0-1.2-0.3-2.1-0.9-2.7c-0.6-0.6-1.5-1-2.6-1c-0.8,0-1.5,0.1-2.2,0.3c-0.5,0.2-0.9,0.4-1.3,0.7v-0.9h-3.7v1.4h1.9V317.5z"/>
		<path id="XMLID_21_" class="st2" d="M311.6,312.6c-0.5-0.2-1.1-0.2-1.7-0.3c-0.6,0-1.1-0.1-1.6-0.2c-0.5-0.1-0.9-0.2-1.2-0.4
			c-0.3-0.2-0.4-0.5-0.4-1v-0.5c0-0.5,0.2-1,0.5-1.3c0.4-0.3,0.9-0.5,1.6-0.5c0.9,0,1.7,0.1,2.2,0.5c0.5,0.3,0.7,0.6,0.7,1v1h1.5
			v-3.7h-1.2v0.7c-0.3-0.2-0.8-0.4-1.3-0.6c-0.7-0.2-1.5-0.3-2.4-0.3c-1.1,0-1.9,0.3-2.6,0.8c-0.7,0.6-1,1.4-1,2.4v0.7
			c0,0.8,0.2,1.3,0.6,1.7c0.4,0.4,0.8,0.6,1.4,0.7c0.5,0.1,1.1,0.2,1.7,0.3c0.6,0,1.1,0.1,1.6,0.2c0.5,0.1,0.9,0.3,1.2,0.5
			c0.3,0.2,0.4,0.6,0.4,1.1v0.3c0,0.6-0.2,1.1-0.6,1.4c-0.4,0.3-0.9,0.5-1.7,0.5c-0.9,0-1.6-0.2-2.2-0.5c-0.6-0.3-0.9-0.8-0.9-1.5
			l-0.2-0.6h-1.3v3.9h1.2v-0.9c0.4,0.3,0.8,0.5,1.3,0.7c0.7,0.2,1.4,0.3,2.2,0.3c1.3,0,2.3-0.3,3-0.8c0.7-0.5,1.1-1.4,1.1-2.4v-0.6
			c0-0.8-0.2-1.4-0.6-1.8C312.6,313.1,312.2,312.8,311.6,312.6z"/>
		<polygon id="XMLID_20_" class="st2" points="334.3,304.3 330.6,304.3 330.6,305.7 332.5,305.7 332.5,317.5 330.6,317.5 
			330.6,318.9 336,318.9 336,317.5 334.3,317.5 		"/>
		<path id="XMLID_19_" class="st2" d="M343.9,316.4c0,0.7-0.1,1-0.2,1.1c-0.1,0.2-0.3,0.2-0.7,0.2c-0.4,0-0.9-0.1-0.9-1.1v-7.9h2.8
			v-1.4h-2.8v-2.5l-1.8,0.1v2.4h-1.9v1.4h1.9v8.1c0,0.8,0.2,1.4,0.6,1.7c0.4,0.4,1,0.6,1.9,0.6c0.8,0,1.4-0.2,1.8-0.6
			c0.5-0.4,0.7-0.9,0.7-1.6v-0.7l-1.4-0.1V316.4z"/>
		<polygon id="XMLID_18_" class="st2" points="351.7,307.3 348,307.3 348,308.7 349.8,308.7 349.8,317.5 348,317.5 348,318.9 
			353.4,318.9 353.4,317.5 351.7,317.5 		"/>
		<path id="XMLID_17_" class="st2" d="M365.4,305.9h1.1c0.2,0,0.3,0,0.4-0.1c0.1-0.1,0.2-0.2,0.2-0.4v-1c0-0.2,0-0.3-0.2-0.4
			c-0.1-0.1-0.2-0.1-0.4-0.1h-1.1c-0.2,0-0.3,0-0.4,0.1c-0.1,0.1-0.1,0.2-0.1,0.4v0.9c0,0.2,0,0.3,0.1,0.4
			C365.1,305.9,365.2,305.9,365.4,305.9z"/>
		<path id="XMLID_16_" class="st2" d="M366.8,310.8c0-1.2-0.3-2.1-0.9-2.7c-0.6-0.6-1.5-1-2.6-1c-0.8,0-1.5,0.1-2.2,0.3
			c-0.5,0.2-0.9,0.4-1.3,0.7v-0.9h-3.7v1.4h1.9v8.8h-1.8v1.4h5.3v-1.4h-1.7v-6.2c0-0.4,0.1-0.8,0.2-1.1c0.2-0.3,0.4-0.6,0.6-0.9
			c0.3-0.2,0.6-0.4,1-0.6c0.4-0.1,0.8-0.2,1.3-0.2c0.7,0,1.2,0.2,1.5,0.6c0.3,0.4,0.5,1.1,0.5,2v6.4h-1.9v1.4h5.4v-1.4h-1.7V310.8z"
			/>
		<path id="XMLID_13_" class="st2" d="M379.9,307.3v1.1c-0.4-0.4-0.9-0.7-1.4-0.9c-0.8-0.3-1.6-0.4-2.5-0.4c-0.7,0-1.3,0.1-1.8,0.4
			c-0.5,0.2-1,0.6-1.3,1c-0.4,0.5-0.6,1-0.8,1.6c-0.2,0.6-0.3,1.3-0.3,2.1v1.6c0,0.8,0.1,1.4,0.3,2.1c0.2,0.6,0.5,1.2,0.8,1.6
			c0.4,0.4,0.8,0.8,1.4,1c0.5,0.2,1.1,0.4,1.8,0.4c0.9,0,1.7-0.1,2.5-0.4c0.5-0.2,1-0.5,1.4-0.9v1.1c0,0.9-0.2,1.5-0.6,1.9
			c-0.4,0.4-1.1,0.6-2,0.6h-0.8c-0.8,0-1.4-0.1-1.8-0.4c-0.3-0.2-0.5-0.6-0.6-1.1l0-0.2h-0.8c-0.2,0-0.3,0-0.3,0
			c-0.2,0-0.5,0.1-0.7,0.4l-0.1,0.1l0,0.1c0.1,0.8,0.5,1.4,1.1,1.8c0.7,0.4,1.6,0.6,2.8,0.6h1c1.5,0,2.6-0.3,3.3-0.9
			c0.7-0.6,1.1-1.5,1.1-2.8v-10.1h1.7v-1.4H379.9z M379.9,312.9v0.3c0,0.6-0.1,1.2-0.2,1.8c-0.1,0.5-0.3,1-0.5,1.4
			c-0.2,0.4-0.5,0.7-0.8,0.9c-0.3,0.2-0.6,0.3-0.9,0.3h-1c-0.4,0-0.8-0.1-1.1-0.3c-0.3-0.2-0.6-0.4-0.9-0.8
			c-0.3-0.3-0.5-0.7-0.6-1.2c-0.1-0.5-0.2-1-0.2-1.6v-1.5c0-0.6,0.1-1.1,0.2-1.6c0.1-0.5,0.3-0.9,0.6-1.2c0.2-0.3,0.5-0.6,0.9-0.8
			c0.3-0.2,0.7-0.3,1.1-0.3h1c0.4,0,0.7,0.1,1,0.3c0.3,0.2,0.6,0.5,0.8,0.9c0.2,0.4,0.4,0.9,0.5,1.4
			C379.8,311.7,379.9,312.3,379.9,312.9z"/>
		<path id="XMLID_12_" class="st2" d="M267,335h3v1.9c-0.2,0.9-0.7,1.7-1.5,2.2c-0.8,0.5-1.9,0.8-3.2,0.8c-1.4,0-2.5-0.4-3.3-1.2
			c-0.8-0.8-1.2-2-1.2-3.4v-2.7c0-1.4,0.4-2.6,1.2-3.4c0.8-0.8,1.9-1.2,3.3-1.2c1.2,0,2.3,0.2,3.1,0.7c0.8,0.5,1.4,1.1,1.6,2v1h1.7
			v-5h-1.3v1.3c-0.5-0.4-1.1-0.7-1.8-1c-0.9-0.3-2.1-0.5-3.3-0.5c-2,0-3.6,0.5-4.7,1.6c-1.1,1.1-1.7,2.6-1.7,4.5v2.6
			c0,0.9,0.1,1.8,0.4,2.5c0.3,0.8,0.7,1.4,1.3,2c0.5,0.5,1.2,0.9,2,1.2c0.8,0.3,1.7,0.4,2.6,0.4c1.2,0,2.3-0.2,3.3-0.5
			c0.8-0.3,1.5-0.6,2-1.1v1.4h1.4V335h1.4v-1.4H267V335z"/>
		<path id="XMLID_11_" class="st2" d="M282.5,329.5c-0.4,0.1-0.8,0.1-1.2,0.3c-0.4,0.1-0.8,0.3-1.1,0.5c-0.1,0.1-0.2,0.2-0.4,0.3v-1
			h-3.6v1.4h1.8v8.8h-1.8v1.4h5.7v-1.4h-2.1v-6.7c0-0.4,0.1-0.7,0.3-1c0.2-0.3,0.5-0.5,0.8-0.6c0.4-0.2,0.8-0.3,1.2-0.3
			c0.4-0.1,0.9-0.1,1.3-0.1h0.2v-0.5c0-0.2,0-0.5,0-0.9l0-0.2h-0.2C283.2,329.5,282.8,329.5,282.5,329.5z"/>
		<path id="XMLID_8_" class="st2" d="M292.9,329.4h-1.2c-1.5,0-2.6,0.5-3.4,1.4c-0.8,0.9-1.2,2.2-1.2,3.8v1.5c0,1.6,0.4,2.9,1.2,3.8
			c0.8,1,1.9,1.4,3.4,1.4h1.2c1.4,0,2.6-0.5,3.4-1.4c0.8-0.9,1.2-2.2,1.2-3.8v-1.5c0-1.6-0.4-2.9-1.2-3.8
			C295.5,329.9,294.3,329.4,292.9,329.4z M295.6,334.8v1.3c0,1.2-0.3,2.2-0.8,2.9c-0.5,0.7-1.2,1-2.2,1h-0.7c-1,0-1.7-0.3-2.2-1
			c-0.5-0.7-0.8-1.7-0.8-2.9v-1.3c0-1.2,0.3-2.2,0.8-2.9c0.5-0.7,1.2-1,2.2-1h0.7c1,0,1.7,0.3,2.2,1
			C295.4,332.6,295.6,333.5,295.6,334.8z"/>
		<path id="XMLID_7_" class="st2" d="M311.2,329.6h-3.6v1.4h1.8v6.2c0,0.4-0.1,0.8-0.2,1.1c-0.2,0.3-0.4,0.6-0.6,0.9
			c-0.3,0.2-0.6,0.5-1,0.6c-0.4,0.2-0.8,0.2-1.2,0.2c-0.8,0-1.3-0.2-1.6-0.6c-0.3-0.4-0.5-1.1-0.5-2v-7.8h-3.5v1.4h1.7v6.6
			c0,1.2,0.3,2.1,0.8,2.8c0.6,0.7,1.4,1,2.6,1c0.9,0,1.6-0.1,2.3-0.4c0.5-0.2,0.9-0.5,1.3-0.8v1h3.6v-1.4h-1.8V329.6z"/>
		<path id="XMLID_4_" class="st2" d="M322.8,329.4c-0.8,0-1.6,0.1-2.3,0.4c-0.5,0.2-1,0.5-1.4,0.9v-1.1h-3.5v1.4h1.7v12.2h-1.7v1.4
			h5.3v-1.4H319v-3c0.4,0.4,0.9,0.6,1.4,0.8c0.7,0.2,1.5,0.4,2.3,0.4c1.4,0,2.5-0.5,3.3-1.4c0.7-0.9,1.1-2.2,1.1-3.7v-1.6
			c0-1.6-0.4-2.8-1.1-3.7C325.3,329.9,324.2,329.4,322.8,329.4z M325.3,334.7v1.4c0,1.2-0.3,2.2-0.8,2.9c-0.5,0.7-1.2,1-2.1,1
			c-1.1,0-1.9-0.3-2.6-0.9c-0.6-0.6-0.9-1.5-0.9-2.5v-2.1c0-1.2,0.3-2.2,0.9-2.8c0.6-0.6,1.5-1,2.6-1c0.9,0,1.6,0.3,2.1,1
			C325.1,332.5,325.3,333.5,325.3,334.7z"/>
	</g>
</g>
</svg>
