<?xml version="1.0" encoding="utf-8"?>
<!-- Generator: Adobe Illustrator 17.0.0, SVG Export Plug-In . SVG Version: 6.00 Build 0)  -->
<!DOCTYPE svg PUBLIC "-//W3C//DTD SVG 1.1//EN" "http://www.w3.org/Graphics/SVG/1.1/DTD/svg11.dtd">
<svg version="1.1" id="Layer_1" xmlns="http://www.w3.org/2000/svg" xmlns:xlink="http://www.w3.org/1999/xlink" x="0px" y="0px"
	 width="400px" height="400px" viewBox="0 0 400 400" enable-background="new 0 0 400 400" xml:space="preserve">
<g>
	<path fill="#262525" d="M118.4,37.096l-1.07,0.007c-9.728,0.203-16.525,1.523-20.709,4.031c-4.526-2.711-11.221-4.031-20.405-4.031
		c-17.534,0-26.426,5.304-26.426,15.765v221.595h11.698V57.546c0-8.391,4.681-12.299,14.728-12.299s14.728,3.908,14.728,12.299
		V258.87h11.695V57.546c0-8.391,4.681-12.299,14.728-12.299s14.728,3.908,14.728,12.299V258.87h11.698V52.868
		C143.794,42.402,135.25,37.096,118.4,37.096z"/>
	<rect x="153.492" y="37.103" fill="#262525" width="11.698" height="237.36"/>
	<path fill="#262525" d="M201.314,37.103h-26.426v8.144h26.426c10.047,0,14.728,3.908,14.728,12.299V92.98l-41.154,77.967v72.157
		c0,10.461,8.892,15.765,26.426,15.765h26.423v-8.144h-26.423c-10.047,0-14.728-3.911-14.728-12.309v-61.977l41.151-77.964V52.858
		C227.737,42.403,218.849,37.103,201.314,37.103z"/>
	<path fill="#262525" d="M263.862,37.103c-17.534,0-26.426,5.304-26.426,15.765v221.595h11.698V138.804h29.456V258.87h11.695V52.868
		C290.285,42.407,281.396,37.103,263.862,37.103z M278.59,57.546v73.113h-29.456V57.546c0-8.391,4.681-12.299,14.728-12.299
		C273.908,45.247,278.59,49.155,278.59,57.546z"/>
	<path fill="#262525" d="M326.409,37.103c-17.534,0-26.426,5.304-26.426,15.765v221.595h11.698V57.546
		c0-8.391,4.681-12.299,14.728-12.299s14.728,3.908,14.728,12.299V258.87h11.695V52.868
		C352.832,42.407,343.943,37.103,326.409,37.103z"/>
</g>
<rect x="26.964" y="265.354" fill="#BE1E2D" width="346.577" height="99.364"/>
<g>
	<path fill="#FFFFFF" d="M63.252,342.237c0,4.969-2.701,7.384-8.263,7.384s-8.263-2.415-8.263-7.384v-60.251h-5.433v62.886
		c0,5.59,4.61,8.423,13.696,8.423s13.696-2.833,13.696-8.423v-62.886h-5.433V342.237z"/>
	<path fill="#FFFFFF" d="M88.365,281.986c-3.388,0-6.161,0.435-8.263,1.295v-1.295H74.67v80.093h5.433v-69.033
		c0-4.969,2.701-7.386,8.263-7.386s8.263,2.417,8.263,7.386v60.249h5.433v-62.882C102.061,284.821,97.45,281.986,88.365,281.986z"/>
	<path fill="#FFFFFF" d="M130.003,283.281c-2.102-0.86-4.874-1.295-8.263-1.295c-9.085,0-13.696,2.835-13.696,8.427v54.459
		c0,5.59,4.61,8.423,13.696,8.423s13.696-2.833,13.696-8.423v-76.879h-5.433V283.281z M130.003,342.237
		c0,4.969-2.701,7.384-8.263,7.384c-5.561,0-8.263-2.415-8.263-7.384v-49.19c0-4.969,2.701-7.386,8.263-7.386
		c5.561,0,8.263,2.417,8.263,7.386V342.237z"/>
	<path fill="#FFFFFF" d="M155.117,281.986c-9.085,0-13.696,2.835-13.696,8.427v54.459c0,5.59,4.61,8.423,13.696,8.423
		s13.696-2.833,13.696-8.423v-7.547h-5.433v4.912c0,4.969-2.701,7.384-8.263,7.384c-5.561,0-8.263-2.415-8.263-7.384V325.65
		c2.099,0.86,4.871,1.295,8.263,1.295c9.085,0,13.696-2.835,13.696-8.425v-28.107C168.812,284.821,164.202,281.986,155.117,281.986z
		 M163.379,315.885c0,4.969-2.701,7.386-8.263,7.386c-5.561,0-8.263-2.417-8.263-7.386v-22.838c0-4.969,2.701-7.386,8.263-7.386
		c5.561,0,8.263,2.417,8.263,7.386V315.885z"/>
	<path fill="#FFFFFF" d="M188.492,281.986c-3.392,0-6.164,0.435-8.263,1.295v-1.295h-5.433v71.309h5.433v-60.249
		c0-4.969,2.701-7.386,8.263-7.386c5.561,0,8.263,2.417,8.263,7.386v2.276h5.433v-4.91
		C202.188,284.821,197.577,281.986,188.492,281.986z"/>
	<path fill="#FFFFFF" d="M252.089,342.237c0,4.969-2.701,7.384-8.259,7.384c-5.561,0-8.263-2.415-8.263-7.384v-60.251h-5.433v60.251
		c0,4.969-2.705,7.384-8.266,7.384c-5.558,0-8.259-2.415-8.259-7.384v-60.251h-5.436v62.886c0,5.59,4.61,8.423,13.696,8.423
		c4.966,0,8.53-0.763,10.876-2.332c2.153,1.569,5.785,2.332,11.086,2.332c9.085,0,13.696-2.833,13.696-8.423v-62.886h-5.436v60.251
		H252.089z"/>
	<path fill="#FFFFFF" d="M277.205,281.986c-9.085,0-13.696,2.835-13.696,8.427v54.459c0,5.59,4.61,8.423,13.696,8.423
		s13.696-2.833,13.696-8.423v-7.547h-5.433v4.912c0,4.969-2.701,7.384-8.263,7.384s-8.263-2.415-8.263-7.384V325.65
		c2.099,0.86,4.871,1.295,8.263,1.295c9.085,0,13.696-2.835,13.696-8.425v-28.107C290.901,284.821,286.291,281.986,277.205,281.986z
		 M285.468,315.885c0,4.969-2.701,7.386-8.263,7.386s-8.263-2.417-8.263-7.386v-22.838c0-4.969,2.701-7.386,8.263-7.386
		s8.263,2.417,8.263,7.386V315.885z"/>
	<path fill="#FFFFFF" d="M310.581,281.986c-9.089,0-13.699,2.835-13.699,8.427v7.545h5.436v-4.912c0-4.969,2.701-7.386,8.263-7.386
		s8.263,2.417,8.263,7.386v16.588c-2.099-0.861-4.874-1.296-8.263-1.296c-9.089,0-13.699,2.835-13.699,8.425v28.109
		c0,5.59,4.61,8.423,13.699,8.423c9.085,0,13.696-2.833,13.696-8.423v-54.459C324.277,284.821,319.666,281.986,310.581,281.986z
		 M318.844,342.237c0,4.969-2.701,7.384-8.263,7.384s-8.263-2.415-8.263-7.384v-22.838c0-4.969,2.701-7.386,8.263-7.386
		s8.263,2.417,8.263,7.386V342.237z"/>
	<path fill="#FFFFFF" d="M343.957,281.986c-3.392,0-6.164,0.435-8.263,1.295v-1.295h-5.436v71.309h5.436v-60.249
		c0-4.969,2.701-7.386,8.263-7.386c5.561,0,8.263,2.417,8.263,7.386v2.276h5.433v-4.91
		C357.652,284.821,353.042,281.986,343.957,281.986z"/>
</g>
</svg>
