<?xml version="1.0" encoding="utf-8"?>
<!-- Generator: Adobe Illustrator 17.0.0, SVG Export Plug-In . SVG Version: 6.00 Build 0)  -->
<!DOCTYPE svg PUBLIC "-//W3C//DTD SVG 1.1//EN" "http://www.w3.org/Graphics/SVG/1.1/DTD/svg11.dtd">
<svg version="1.1" id="Layer_1" xmlns="http://www.w3.org/2000/svg" xmlns:xlink="http://www.w3.org/1999/xlink" x="0px" y="0px"
	 width="500px" height="200px" viewBox="0 0 500 200" enable-background="new 0 0 500 200" xml:space="preserve">
<path fill="#262262" d="M80.334,123.03c-2.455,0-4.735-1.103-6.255-3.026c-1.32-1.669-1.911-3.753-1.664-5.866
	c0.247-2.114,1.302-4.005,2.972-5.325l35.644-28.186c1.422-1.124,3.128-1.718,4.936-1.718c2.455,0,4.735,1.103,6.255,3.026
	c2.725,3.446,2.138,8.466-1.307,11.191L85.27,121.311C83.849,122.435,82.142,123.03,80.334,123.03
	C80.335,123.03,80.335,123.03,80.334,123.03z"/>
<path fill="#262262" d="M103.64,77.16c-2.455,0-4.735-1.103-6.255-3.026c-2.725-3.446-2.138-8.466,1.307-11.191l35.644-28.186
	c1.422-1.124,3.128-1.718,4.936-1.718c2.455,0,4.735,1.103,6.255,3.026c1.32,1.669,1.911,3.753,1.664,5.866
	s-1.302,4.005-2.972,5.325l-35.644,28.186C107.155,76.566,105.448,77.16,103.64,77.16C103.64,77.16,103.64,77.16,103.64,77.16z"/>
<path fill="#262262" d="M163.741,116.532c-2.455,0-4.735-1.103-6.255-3.026L129.3,77.863c-1.32-1.669-1.911-3.753-1.664-5.866
	c0.247-2.114,1.302-4.005,2.972-5.325c1.421-1.124,3.128-1.718,4.936-1.718c2.455,0,4.735,1.103,6.255,3.026l28.186,35.644
	c1.32,1.669,1.911,3.753,1.664,5.866c-0.247,2.114-1.302,4.005-2.972,5.325C167.256,115.938,165.549,116.532,163.741,116.532
	C163.741,116.532,163.741,116.532,163.741,116.532z"/>
<path fill="#262262" d="M119.499,13.244c-39.565,0-71.639,32.074-71.639,71.639s32.074,71.639,71.639,71.639
	s71.639-32.074,71.639-71.639S159.065,13.244,119.499,13.244z M119.499,150.045c-35.988,0-65.162-29.174-65.162-65.162
	s29.174-65.162,65.162-65.162s65.162,29.174,65.162,65.162S155.487,150.045,119.499,150.045z"/>
<g>
	<path fill="#262262" d="M265.344,57.693V45.769c0-6.462-1.273-11.366-3.817-14.711c-2.545-3.346-6.305-5.018-11.28-5.018
		c-4.117,0-7.578,1.287-10.379,3.86c-2.803,2.573-4.203,5.747-4.203,9.522c0,3.546,1.33,6.763,3.989,9.65
		c2.659,2.888,8.163,6.62,16.513,11.194c0.914,0.515,2.23,1.23,3.946,2.144c20.587,11.095,30.881,22.989,30.881,35.685
		c0,11.895-4.175,21.488-12.524,28.779c-8.35,7.291-19.444,10.937-33.283,10.937c-11.724,0-21.445-3.245-29.165-9.736
		c-7.72-6.49-11.58-14.51-11.58-24.062c0-8.291,2.63-15.183,7.892-20.673c5.261-5.49,11.866-8.235,19.815-8.235
		c6.805,0,12.58,1.816,17.328,5.447c4.746,3.632,7.12,8.021,7.12,13.167c0,3.832-1.23,6.862-3.688,9.093
		c-2.46,2.23-5.805,3.346-10.036,3.346c-1.316,0-2.402-0.099-3.26-0.3c-0.858-0.2-1.63-0.5-2.316-0.901l0.171-3.002
		c2.801-0.114,5.104-1.143,6.905-3.088c1.801-1.944,2.702-4.375,2.702-7.291c0-3.431-1.344-6.247-4.032-8.449
		c-2.689-2.201-6.148-3.302-10.38-3.302c-5.605,0-10.28,2.059-14.025,6.176c-3.746,4.117-5.619,9.322-5.619,15.612
		c0,8.407,3.417,15.627,10.251,21.66c6.833,6.034,15.055,9.05,24.662,9.05c9.207,0,16.841-2.745,22.903-8.235
		c6.061-5.49,9.093-12.352,9.093-20.587c0-5.032-1.415-9.321-4.246-12.867c-2.831-3.545-8.964-7.978-18.4-13.296
		c-1.029-0.571-2.573-1.429-4.632-2.573c-17.271-9.721-25.906-19.644-25.906-29.766c0-6.805,2.359-12.567,7.077-17.285
		c4.718-4.718,10.422-7.077,17.113-7.077c2.63,0,5.061,0.315,7.291,0.944c2.23,0.63,4.603,1.659,7.12,3.088v-8.492h4.975v41.518
		H265.344z"/>
	<path fill="#262262" d="M302.094,65.413h-6.434l-0.772-3.346h7.206V39.079l12.181-11.838v34.827h15.097v3.346h-15.097v53.956
		c0,4.518,0.957,7.949,2.873,10.294c1.915,2.346,4.703,3.517,8.364,3.517c2.63,0,4.989-0.571,7.077-1.716
		c2.087-1.143,3.817-2.831,5.19-5.061c0.285-0.515,0.657-1.257,1.115-2.23c1.257-2.745,2.602-4.117,4.032-4.117
		c0.686,0,1.229,0.244,1.63,0.729c0.4,0.487,0.6,1.13,0.6,1.93c0,2.916-2.174,6.077-6.519,9.479
		c-4.347,3.402-9.264,5.104-14.754,5.104c-6.519,0-11.782-2.044-15.784-6.133c-4.004-4.088-6.005-9.507-6.005-16.255V65.413z"/>
	<path fill="#262262" d="M369.822,121.085c0,3.832,0.558,6.549,1.673,8.149c1.115,1.602,2.902,2.402,5.361,2.402h2.659v3.688
		h-28.479v-3.688h6.519V75.621l-5.506,5.061l-2.386-2.488l21.445-20.158l2.402,2.659l-3.688,3.517V121.085z M356.269,33.76
		c0-1.772,0.676-3.331,2.028-4.675c1.352-1.343,2.95-2.016,4.792-2.016c1.899,0,3.497,0.658,4.792,1.973
		c1.295,1.316,1.942,2.888,1.942,4.718c0,1.831-0.677,3.431-2.029,4.804c-1.352,1.373-2.921,2.059-4.704,2.059
		c-1.726,0-3.295-0.7-4.705-2.102C356.974,37.12,356.269,35.533,356.269,33.76z"/>
	<path fill="#262262" d="M407.116,104.615c-4.576-1.373-8.207-3.831-10.894-7.377c-2.689-3.545-4.032-7.72-4.032-12.524
		c0-6.862,2.372-12.61,7.12-17.242c4.746-4.632,10.637-6.948,17.671-6.948c3.488,0,6.747,0.615,9.779,1.844
		c3.03,1.23,5.69,3.017,7.978,5.361c1.373-0.914,2.415-2.044,3.131-3.388c0.715-1.343,1.072-2.93,1.072-4.761
		c0-0.972-0.401-2.801-1.201-5.49c0-0.056-0.029-0.142-0.086-0.257l4.118-1.287c0.629,1.488,1.1,2.874,1.415,4.16
		c0.313,1.287,0.472,2.616,0.472,3.989c0,1.887-0.501,3.817-1.501,5.79c-1.001,1.973-2.416,3.875-4.246,5.704
		c0.515,1.544,0.901,3.075,1.158,4.589c0.257,1.516,0.386,2.989,0.386,4.418c0,5.434-1.445,10.079-4.332,13.939
		c-2.888,3.86-7.02,6.706-12.395,8.535c-1.259,0.458-3.146,1.001-5.661,1.63c-5.319,1.259-7.978,3.118-7.978,5.576
		c0,2.346,2.659,3.975,7.978,4.89c2.115,0.343,3.774,0.658,4.975,0.944c10.122,2.23,17.628,5.991,22.518,11.28
		c4.889,5.29,7.334,12.309,7.334,21.059c0,10.465-3.489,19.2-10.465,26.206c-6.977,7.004-15.669,10.508-26.077,10.508
		c-10.58,0-19.257-3.103-26.034-9.307c-6.777-6.206-10.165-14.054-10.165-23.546c0-7.549,2.003-14.325,6.005-20.33
		c4.002-6.005,9.578-10.607,16.727-13.811c-0.744-0.858-1.287-1.701-1.63-2.531c-0.343-0.828-0.515-1.673-0.515-2.531
		c0-1.544,0.571-3.03,1.716-4.461C402.598,107.818,404.485,106.274,407.116,104.615z M445.804,155.911
		c0-8.636-3.59-16.156-10.766-22.56c-7.177-6.404-15.541-9.607-25.091-9.607c-7.092,0-12.854,2.003-17.285,6.005
		c-4.432,4.004-6.648,9.207-6.648,15.612c0,8.75,3.56,16.412,10.68,22.989c7.12,6.576,15.454,9.865,25.005,9.865
		c7.32,0,13.168-2.031,17.542-6.091C443.616,168.063,445.804,162.659,445.804,155.911z M418.868,99.983
		c3.603,0,6.462-1.1,8.578-3.302c2.115-2.201,3.174-5.19,3.174-8.964c0-6.061-1.773-11.351-5.318-15.869
		c-3.546-4.517-7.72-6.777-12.524-6.777c-3.489,0-6.305,1.216-8.449,3.646c-2.145,2.431-3.217,5.648-3.217,9.65
		c0,5.605,1.844,10.609,5.533,15.012C410.333,97.782,414.408,99.983,418.868,99.983z"/>
</g>
</svg>
