<?xml version="1.0" encoding="utf-8"?>
<!-- Generator: Adobe Illustrator 17.0.0, SVG Export Plug-In . SVG Version: 6.00 Build 0)  -->
<!DOCTYPE svg PUBLIC "-//W3C//DTD SVG 1.1//EN" "http://www.w3.org/Graphics/SVG/1.1/DTD/svg11.dtd">
<svg version="1.1" id="Layer_1" xmlns="http://www.w3.org/2000/svg" xmlns:xlink="http://www.w3.org/1999/xlink" x="0px" y="0px"
	 width="172.5px" height="200px" viewBox="0 0 172.5 200" enable-background="new 0 0 172.5 200" xml:space="preserve">
<g id="XMLID_53_">
	<path id="XMLID_98_" fill="#3C3B3C" d="M149.924,67.951l0.572,2.289h11.637V12.629H86.59l-1.145,0.191h-2.48h-0.191
		C63.889,14.346,46.338,22.93,33.366,36.665c-4.197,4.388-7.821,9.538-10.874,14.88V25.41l0,0v-4.769c0,0,0,0,0-0.191v-5.341
		c-0.191-1.526-1.335-2.671-2.862-2.671h-4.769c-1.526,0-2.862,1.335-2.862,2.862v0.763l0,0v143.266l0,0v0.382
		c0,1.526,1.335,2.862,2.862,2.862h4.769c1.526,0,2.671-1.145,2.862-2.671v-5.341v-0.191v-30.904
		c4.578,8.012,10.492,15.452,17.741,21.366c12.591,10.492,28.615,16.787,45.212,17.551h6.677h0.382
		c18.886-1.526,36.436-10.111,49.409-23.846c3.815-4.006,7.058-8.394,9.92-13.354v28.424v5.723l0,0v0.382
		c0,1.526,1.335,2.862,2.861,2.862h4.769c1.335,0,2.289-0.954,2.671-2.098V82.64h-42.923l0,0h-0.572
		c-1.526,0.191-2.671,1.335-2.671,2.862v4.769c0,1.526,1.335,2.862,2.862,2.862h0.382l0,0h32.43
		c-2.671,29.95-27.28,55.322-57.612,58.947V23.121C119.974,24.838,142.675,43.151,149.924,67.951z M152.023,22.739v24.8
		c-3.625-5.914-8.012-11.255-13.163-15.834c-3.625-3.434-7.631-6.295-12.018-8.966C126.842,22.739,152.023,22.739,152.023,22.739z
		 M83.538,151.889c-31.477-2.671-57.23-28.043-59.901-58.947h59.901V151.889z M83.538,82.64H23.637
		c2.48-30.904,28.233-57.039,59.71-59.71h0.191V82.64L83.538,82.64z"/>
	<path id="XMLID_97_" fill="#3C3B3C" d="M14.289,187.18h145.555c1.335-0.191,2.48-1.145,2.48-2.48v-4.388
		c0-1.335-0.954-2.289-2.098-2.48H14.289c-1.335,0.191-2.289,1.335-2.289,2.48v4.578C12,186.036,12.954,186.99,14.289,187.18z"/>
</g>
</svg>
