<?xml version="1.0" encoding="utf-8"?>
<!-- Generator: Adobe Illustrator 19.2.0, SVG Export Plug-In . SVG Version: 6.00 Build 0)  -->
<svg version="1.1" id="Layer_1" xmlns="http://www.w3.org/2000/svg" xmlns:xlink="http://www.w3.org/1999/xlink" x="0px" y="0px"
	 viewBox="0 0 14.2 14.2" style="enable-background:new 0 0 14.2 14.2;" xml:space="preserve">
<style type="text/css">
	.st0{fill:none;stroke:#F1605F;stroke-width:0.75;stroke-linecap:round;stroke-miterlimit:10;}
	.st1{fill:#F15F5F;}
</style>
<g>
	<line class="st0" x1="4.8" y1="4.1" x2="9.2" y2="4.1"/>
	<line class="st0" x1="3.4" y1="6.5" x2="9.3" y2="6.5"/>
	<line class="st0" x1="3.4" y1="8.2" x2="9.3" y2="8.2"/>
	<line class="st0" x1="3.4" y1="9.8" x2="9.3" y2="9.8"/>
	<g>
		<path class="st1" d="M11,1H1.6C1.4,1,1.2,1.2,1.2,1.4v10.3c0,0.2,0.2,0.4,0.4,0.4H11c0.2,0,0.4-0.2,0.4-0.4V1.4
			C11.4,1.2,11.3,1,11,1z M10.7,11.3H2V1.8h8.7V11.3z"/>
	</g>
	<g>
		<path class="st1" d="M12.4,2.4h-1.8v0.8h1.4v9.6H3.4v-1.4H2.6v1.8c0,0.2,0.2,0.4,0.4,0.4h9.4c0.2,0,0.4-0.2,0.4-0.4V2.8
			C12.8,2.6,12.6,2.4,12.4,2.4z"/>
	</g>
</g>
</svg>
