<?xml version="1.0" encoding="utf-8"?>
<!-- Generator: Adobe Illustrator 19.2.0, SVG Export Plug-In . SVG Version: 6.00 Build 0)  -->
<svg version="1.1" id="Layer_1" xmlns="http://www.w3.org/2000/svg" xmlns:xlink="http://www.w3.org/1999/xlink" x="0px" y="0px"
	 viewBox="0 0 14.2 14.2" style="enable-background:new 0 0 14.2 14.2;" xml:space="preserve">
<style type="text/css">
	.st0{fill:#F15F5F;}
</style>
<g>
	<path class="st0" d="M12.7,2.1H6.9l1,1h4.3V12H3.3V7.7l-1-1v5.8c0,0.3,0.2,0.5,0.5,0.5h9.9c0.3,0,0.5-0.2,0.5-0.5V2.6
		C13.2,2.3,13,2.1,12.7,2.1z"/>
	<polygon class="st0" points="8.4,8.3 7.6,6.2 3.4,2 2,3.4 6.2,7.6 	"/>
	<path class="st0" d="M1.8,0.3L1.8,0.3c-0.4-0.4-1.1-0.4-1.5,0s-0.4,1.1,0,1.5l0,0l0,0c0,0,0,0,0,0l0,0l0.9,0.9l1.5-1.5L1.8,0.3z"/>
</g>
</svg>
