<?xml version="1.0" encoding="utf-8"?>
<!-- Generator: Adobe Illustrator 19.2.0, SVG Export Plug-In . SVG Version: 6.00 Build 0)  -->
<svg version="1.1" id="Layer_1" xmlns="http://www.w3.org/2000/svg" xmlns:xlink="http://www.w3.org/1999/xlink" x="0px" y="0px"
	 viewBox="0 0 14.2 14.2" style="enable-background:new 0 0 14.2 14.2;" xml:space="preserve">
<style type="text/css">
	.st0{fill:#F1605F;}
</style>
<path class="st0" d="M12.6,8.9C12.6,8.9,12.6,9,12.6,8.9c0,0.1-0.1,0.2-0.1,0.3c-0.1,0.1-0.1,0.3-0.2,0.4c0,0.1,0,0.1-0.1,0.1l0,0
	l-0.5-0.4l-0.2-0.2L7.9,6.5L7.8,2l0-0.3l0-0.6c0.2,0,0.3,0,0.5,0.1c0,0,0,0,0,0c0.1,0,0.3,0.1,0.4,0.1c2.2,0.7,3.9,2.7,4.2,5.1
	C13,7.3,12.9,8.1,12.6,8.9z"/>
<g>
	<path class="st0" d="M11.3,10c-0.1,0.2-0.2,0.3-0.4,0.5c-1,1-2.3,1.7-3.8,1.7c-2.9,0-5.2-2.4-5.2-5.2c0-2.7,2.1-5,4.8-5.2
		c0.2,0,0.3,0,0.5,0c0.1,0,0.1,0,0.2,0V1.1C7.2,1,7.1,1,7,1c-0.1,0-0.3,0-0.5,0c-3,0.2-5.4,2.8-5.4,5.8c0,3.2,2.6,5.9,5.9,5.9
		c1.7,0,3.2-0.7,4.3-1.9c0.2-0.1,0.3-0.3,0.4-0.5L11.3,10z"/>
</g>
<g>
	<path class="st0" d="M11.8,10.4c-0.1,0.2-0.3,0.3-0.4,0.5l-0.5-0.4L6.6,7.2L6.5,1.1C6.7,1.1,6.9,1,7.1,1c0.1,0,0.1,0,0.2,0v5.9
		l4,3.1L11.8,10.4z"/>
</g>
</svg>
