<?xml version="1.0" encoding="utf-8"?>
<!-- Generator: Adobe Illustrator 19.2.0, SVG Export Plug-In . SVG Version: 6.00 Build 0)  -->
<svg version="1.1" id="Layer_1" xmlns="http://www.w3.org/2000/svg" xmlns:xlink="http://www.w3.org/1999/xlink" x="0px" y="0px"
	 viewBox="0 0 14.2 14.2" style="enable-background:new 0 0 14.2 14.2;" xml:space="preserve">
<style type="text/css">
	.st0{fill:#ED5C5B;}
	.st1{fill:#ED5B5B;}
</style>
<g>
	<g>
		<g>
			<path class="st0" d="M12.3,3.1H3.1l0.1,0.7h9.3L12.3,3.1z"/>
			<path class="st0" d="M13.3,3.4v3.4h-0.7v-3h-0.2l-0.1-0.7H13C13.2,3.1,13.3,3.2,13.3,3.4z"/>
			<path class="st0" d="M12.6,9.2h0.7v3.3c0,0.2-0.2,0.4-0.4,0.4H2.2c-0.2,0-0.3-0.2-0.3-0.4V3.4c0-0.2,0.2-0.3,0.3-0.3h0.8l0.1,0.7
				H2.6v8.4h10V9.2z"/>
		</g>
		<g>
			<path class="st0" d="M12.3,3.1l-0.2-1.4c0-0.2-0.2-0.3-0.4-0.3L3.4,2.4c-0.1,0-0.2,0.1-0.2,0.1C3.1,2.6,3,2.7,3,2.8l0,0.3
				l0.1,0.7h0.7L3.8,3.1v0l7.7-1l0.1,1l0.1,0.7h0.7L12.3,3.1z"/>
		</g>
		<g>
			<path class="st0" d="M13.8,6.1H9.2C9,6.1,8.8,6.2,8.8,6.4v3.1c0,0.2,0.2,0.4,0.3,0.4h4.6c0.2,0,0.3-0.2,0.3-0.4V6.4
				C14.2,6.2,14,6.1,13.8,6.1z M13.5,9.2H9.6V6.8h3.9V9.2z"/>
		</g>
	</g>
	<circle class="st1" cx="10.7" cy="8" r="0.4"/>
</g>
</svg>
