<?xml version="1.0" encoding="utf-8"?>
<!-- Generator: Adobe Illustrator 19.2.0, SVG Export Plug-In . SVG Version: 6.00 Build 0)  -->
<svg version="1.1" id="Capa_1" xmlns="http://www.w3.org/2000/svg" xmlns:xlink="http://www.w3.org/1999/xlink" x="0px" y="0px"
	 viewBox="0 0 512 512" style="enable-background:new 0 0 512 512;" xml:space="preserve">
<style type="text/css">
	.st0{fill:#EE5A5B;}
	.st1{fill:#FFFFFF;}
</style>
<rect x="0" class="st0" width="512" height="512"/>
<g>
	<path class="st1" d="M143.2,383.3l62.2-62.2c19.2,16.7,44.2,26.8,71.6,26.8c60.2,0,109.2-49,109.2-109.2
		c0-60.2-49-109.2-109.2-109.2s-109.2,49-109.2,109.2c0,27.4,10.1,52.4,26.8,71.6l-62.2,62.2c-1.5,1.5-2.3,3.5-2.3,5.4
		c0,1.9,0.7,3.9,2.3,5.4C135.3,386.2,140.2,386.2,143.2,383.3z M277,144.7c51.8,0,93.9,42.1,93.9,93.9c0,51.8-42.1,93.9-93.9,93.9
		s-93.9-42.1-93.9-93.9C183.1,186.9,225.2,144.7,277,144.7z"/>
</g>
</svg>
